<?xml version="1.0" encoding="UTF-8" standalone="no"?>
<!-- Created with Inkscape (http://www.inkscape.org/) -->

<svg
   xmlns:dc="http://purl.org/dc/elements/1.1/"
   xmlns:cc="http://creativecommons.org/ns#"
   xmlns:rdf="http://www.w3.org/1999/02/22-rdf-syntax-ns#"
   xmlns:svg="http://www.w3.org/2000/svg"
   xmlns="http://www.w3.org/2000/svg"
   xmlns:sodipodi="http://sodipodi.sourceforge.net/DTD/sodipodi-0.dtd"
   xmlns:inkscape="http://www.inkscape.org/namespaces/inkscape"
   width="15cm"
   height="9cm"
   viewBox="0 0 531.49606 318.89763"
   id="svg2"
   version="1.1"
   inkscape:version="0.91 r13725"
   sodipodi:docname="spin.svg">
  <sodipodi:namedview
     id="base"
     pagecolor="#ffffff"
     bordercolor="#666666"
     borderopacity="1.0"
     inkscape:pageopacity="0.0"
     inkscape:pageshadow="2"
     inkscape:zoom="2"
     inkscape:cx="342.97457"
     inkscape:cy="118.14608"
     inkscape:document-units="px"
     inkscape:current-layer="layer1"
     showgrid="false"
     units="cm"
     inkscape:window-width="2160"
     inkscape:window-height="1191"
     inkscape:window-x="0"
     inkscape:window-y="50"
     inkscape:window-maximized="1" />
  <defs
     id="defs4">
    <marker
       inkscape:isstock="true"
       style="overflow:visible"
       id="Arrow1Mstart"
       refX="0"
       refY="0"
       orient="auto"
       inkscape:stockid="Arrow1Mstart">
      <path
         transform="matrix(0.4,0,0,0.4,4,0)"
         style="fill:#000000;fill-opacity:1;fill-rule:evenodd;stroke:#000000;stroke-width:1pt;stroke-opacity:1"
         d="M 0,0 5,-5 -12.5,0 5,5 0,0 Z"
         id="path4162"
         inkscape:connector-curvature="0" />
    </marker>
    <marker
       inkscape:stockid="Arrow2Mend"
       orient="auto"
       refY="0"
       refX="0"
       id="marker4736"
       style="overflow:visible"
       inkscape:isstock="true">
      <path
         id="path4738"
         style="fill:#000000;fill-opacity:1;fill-rule:evenodd;stroke:#000000;stroke-width:0.625;stroke-linejoin:round;stroke-opacity:1"
         d="M 8.7185878,4.0337352 -2.2072895,0.01601326 8.7185884,-4.0017078 c -1.7454984,2.3720609 -1.7354408,5.6174519 -6e-7,8.035443 z"
         transform="scale(-0.6,-0.6)"
         inkscape:connector-curvature="0" />
    </marker>
    <marker
       inkscape:collect="always"
       inkscape:isstock="true"
       style="overflow:visible"
       id="Arrow2Mend"
       refX="0"
       refY="0"
       orient="auto"
       inkscape:stockid="Arrow2Mend">
      <path
         transform="scale(-0.6,-0.6)"
         d="M 8.7185878,4.0337352 -2.2072895,0.01601326 8.7185884,-4.0017078 c -1.7454984,2.3720609 -1.7354408,5.6174519 -6e-7,8.035443 z"
         style="fill:#000000;fill-opacity:1;fill-rule:evenodd;stroke:#000000;stroke-width:0.625;stroke-linejoin:round;stroke-opacity:1"
         id="path4183"
         inkscape:connector-curvature="0" />
    </marker>
    <marker
       inkscape:isstock="true"
       style="overflow:visible"
       id="Arrow1Lend"
       refX="0"
       refY="0"
       orient="auto"
       inkscape:stockid="Arrow1Lend">
      <path
         transform="matrix(-0.8,0,0,-0.8,-10,0)"
         style="fill:#000000;fill-opacity:1;fill-rule:evenodd;stroke:#000000;stroke-width:1pt;stroke-opacity:1"
         d="M 0,0 5,-5 -12.5,0 5,5 0,0 Z"
         id="path4159"
         inkscape:connector-curvature="0" />
    </marker>
    <marker
       inkscape:isstock="true"
       style="overflow:visible"
       id="Arrow2Mend-7"
       refX="0"
       refY="0"
       orient="auto"
       inkscape:stockid="Arrow2Mend">
      <path
         transform="scale(-0.6,-0.6)"
         d="M 8.7185878,4.0337352 -2.2072895,0.01601326 8.7185884,-4.0017078 c -1.7454984,2.3720609 -1.7354408,5.6174519 -6e-7,8.035443 z"
         style="fill:#000000;fill-opacity:1;fill-rule:evenodd;stroke:#000000;stroke-width:0.625;stroke-linejoin:round;stroke-opacity:1"
         id="path4183-2"
         inkscape:connector-curvature="0" />
    </marker>
    <marker
       inkscape:isstock="true"
       style="overflow:visible"
       id="Arrow1Mstart-6"
       refX="0"
       refY="0"
       orient="auto"
       inkscape:stockid="Arrow1Mstart">
      <path
         transform="matrix(0.4,0,0,0.4,4,0)"
         style="fill:#000000;fill-opacity:1;fill-rule:evenodd;stroke:#000000;stroke-width:1pt;stroke-opacity:1"
         d="M 0,0 5,-5 -12.5,0 5,5 0,0 Z"
         id="path4162-2"
         inkscape:connector-curvature="0" />
    </marker>
    <marker
       inkscape:collect="always"
       inkscape:isstock="true"
       style="overflow:visible"
       id="Arrow2Mend-0"
       refX="0"
       refY="0"
       orient="auto"
       inkscape:stockid="Arrow2Mend">
      <path
         transform="scale(-0.6,-0.6)"
         d="M 8.7185878,4.0337352 -2.2072895,0.01601326 8.7185884,-4.0017078 c -1.7454984,2.3720609 -1.7354408,5.6174519 -6e-7,8.035443 z"
         style="fill:#000000;fill-opacity:1;fill-rule:evenodd;stroke:#000000;stroke-width:0.625;stroke-linejoin:round;stroke-opacity:1"
         id="path4183-8"
         inkscape:connector-curvature="0" />
    </marker>
    <marker
       inkscape:isstock="true"
       style="overflow:visible"
       id="Arrow1Mstart-1"
       refX="0"
       refY="0"
       orient="auto"
       inkscape:stockid="Arrow1Mstart">
      <path
         transform="matrix(0.4,0,0,0.4,4,0)"
         style="fill:#000000;fill-opacity:1;fill-rule:evenodd;stroke:#000000;stroke-width:1pt;stroke-opacity:1"
         d="M 0,0 5,-5 -12.5,0 5,5 0,0 Z"
         id="path4162-1"
         inkscape:connector-curvature="0" />
    </marker>
    <marker
       inkscape:collect="always"
       inkscape:isstock="true"
       style="overflow:visible"
       id="Arrow2Mend-03"
       refX="0"
       refY="0"
       orient="auto"
       inkscape:stockid="Arrow2Mend">
      <path
         transform="scale(-0.6,-0.6)"
         d="M 8.7185878,4.0337352 -2.2072895,0.01601326 8.7185884,-4.0017078 c -1.7454984,2.3720609 -1.7354408,5.6174519 -6e-7,8.035443 z"
         style="fill:#000000;fill-opacity:1;fill-rule:evenodd;stroke:#000000;stroke-width:0.625;stroke-linejoin:round;stroke-opacity:1"
         id="path4183-4"
         inkscape:connector-curvature="0" />
    </marker>
    <marker
       inkscape:isstock="true"
       style="overflow:visible"
       id="Arrow1Mstart-9"
       refX="0"
       refY="0"
       orient="auto"
       inkscape:stockid="Arrow1Mstart">
      <path
         transform="matrix(0.4,0,0,0.4,4,0)"
         style="fill:#000000;fill-opacity:1;fill-rule:evenodd;stroke:#000000;stroke-width:1pt;stroke-opacity:1"
         d="M 0,0 5,-5 -12.5,0 5,5 0,0 Z"
         id="path4162-3"
         inkscape:connector-curvature="0" />
    </marker>
    <marker
       inkscape:collect="always"
       inkscape:isstock="true"
       style="overflow:visible"
       id="Arrow2Mend-3"
       refX="0"
       refY="0"
       orient="auto"
       inkscape:stockid="Arrow2Mend">
      <path
         transform="scale(-0.6,-0.6)"
         d="M 8.7185878,4.0337352 -2.2072895,0.01601326 8.7185884,-4.0017078 c -1.7454984,2.3720609 -1.7354408,5.6174519 -6e-7,8.035443 z"
         style="fill:#000000;fill-opacity:1;fill-rule:evenodd;stroke:#000000;stroke-width:0.625;stroke-linejoin:round;stroke-opacity:1"
         id="path4183-80"
         inkscape:connector-curvature="0" />
    </marker>
  </defs>
  <metadata
     id="metadata7">
    <rdf:RDF>
      <cc:Work
         rdf:about="">
        <dc:format>image/svg+xml</dc:format>
        <dc:type
           rdf:resource="http://purl.org/dc/dcmitype/StillImage" />
        <dc:title></dc:title>
      </cc:Work>
    </rdf:RDF>
  </metadata>
  <g
     transform="translate(0,-733.46462)"
     id="layer1"
     inkscape:groupmode="layer"
     inkscape:label="レイヤー 1">
    <path
       style="opacity:0.98999999;fill:none;fill-opacity:1;fill-rule:evenodd;stroke:#000000;stroke-width:3;stroke-linecap:butt;stroke-linejoin:bevel;stroke-miterlimit:4;stroke-dasharray:9, 9;stroke-dashoffset:0;stroke-opacity:1"
       id="path4296-3"
       sodipodi:type="arc"
       sodipodi:cx="272.5527"
       sodipodi:cy="959.86926"
       sodipodi:rx="230.5"
       sodipodi:ry="81.5"
       sodipodi:start="0.97964191"
       sodipodi:end="3.70564"
       sodipodi:open="true"
       d="M 401.01494,1027.5385 A 230.5,81.5 0 0 1 111.78856,1018.2742 230.5,81.5 0 0 1 77.75755,916.29847" />
    <path
       style="opacity:0.98999999;fill:none;fill-opacity:1;fill-rule:evenodd;stroke:#000000;stroke-width:3;stroke-linecap:butt;stroke-linejoin:bevel;stroke-miterlimit:4;stroke-dasharray:none;stroke-dashoffset:0;stroke-opacity:1"
       id="path4296"
       sodipodi:type="arc"
       sodipodi:cx="273"
       sodipodi:cy="959.36224"
       sodipodi:rx="230.5"
       sodipodi:ry="81.5"
       sodipodi:start="3.3934466"
       sodipodi:end="1.0325686"
       sodipodi:open="true"
       d="M 49.771795,939.05246 A 230.5,81.5 0 0 1 270.34778,877.86764 230.5,81.5 0 0 1 494.84732,937.24159 230.5,81.5 0 0 1 391.15778,1029.3397" />
    <path
       sodipodi:open="true"
       d="m 452.03549,1024.917 a 17.033802,17.033802 0 0 1 -19.43306,-14.1075 17.033802,17.033802 0 0 1 13.9856,-19.52104 17.033802,17.033802 0 0 1 19.60821,13.86304 17.033802,17.033802 0 0 1 -13.74003,19.6947"
       sodipodi:end="1.3914165"
       sodipodi:start="1.4164645"
       sodipodi:ry="17.033802"
       sodipodi:rx="17.033802"
       sodipodi:cy="1008.0857"
       sodipodi:cx="449.41705"
       sodipodi:type="arc"
       id="path4146"
       style="opacity:0.98999999;fill:#08dfbb;fill-opacity:1;fill-rule:evenodd;stroke:#000000;stroke-width:0.27643615;stroke-linecap:butt;stroke-linejoin:bevel;stroke-miterlimit:4;stroke-dasharray:none;stroke-dashoffset:0;stroke-opacity:1" />
    <path
       inkscape:connector-curvature="0"
       id="path4150"
       d="M 431.48684,1041.6734 466.3371,971.97286"
       style="fill:none;fill-rule:evenodd;stroke:#000000;stroke-width:3;stroke-linecap:butt;stroke-linejoin:miter;stroke-miterlimit:4;stroke-dasharray:none;stroke-opacity:1;marker-end:url(#Arrow2Mend)" />
    <path
       sodipodi:open="true"
       d="m 448.90499,932.12908 a 17.033802,17.033802 0 0 1 -19.43305,-14.10757 17.033802,17.033802 0 0 1 13.9856,-19.52101 17.033802,17.033802 0 0 1 19.60821,13.86308 17.033802,17.033802 0 0 1 -13.74003,19.69464"
       sodipodi:end="1.3914165"
       sodipodi:start="1.4164645"
       sodipodi:ry="17.033802"
       sodipodi:rx="17.033802"
       sodipodi:cy="915.29773"
       sodipodi:cx="446.28656"
       sodipodi:type="arc"
       id="path4146-4"
       style="opacity:0.98999999;fill:#08dfbb;fill-opacity:1;fill-rule:evenodd;stroke:#000000;stroke-width:0.27643615;stroke-linecap:butt;stroke-linejoin:bevel;stroke-miterlimit:4;stroke-dasharray:none;stroke-dashoffset:0;stroke-opacity:1" />
    <path
       inkscape:connector-curvature="0"
       id="path4150-0"
       d="m 428.35636,948.88541 34.85026,-69.70052"
       style="fill:none;fill-rule:evenodd;stroke:#000000;stroke-width:3;stroke-linecap:butt;stroke-linejoin:miter;stroke-miterlimit:4;stroke-dasharray:none;stroke-opacity:1;marker-start:url(#Arrow1Mstart)" />
    <path
       sodipodi:open="true"
       d="M 60.125926,958.67095 A 17.033802,17.033802 0 0 1 40.692872,944.56338 17.033802,17.033802 0 0 1 54.678473,925.04237 17.033802,17.033802 0 0 1 74.286681,938.90545 17.033802,17.033802 0 0 1 60.546653,958.60009"
       sodipodi:end="1.3914165"
       sodipodi:start="1.4164645"
       sodipodi:ry="17.033802"
       sodipodi:rx="17.033802"
       sodipodi:cy="941.8396"
       sodipodi:cx="57.507492"
       sodipodi:type="arc"
       id="path4146-4-9"
       style="opacity:0.98999999;fill:#08dfbb;fill-opacity:1;fill-rule:evenodd;stroke:#000000;stroke-width:0.27643615;stroke-linecap:butt;stroke-linejoin:bevel;stroke-miterlimit:4;stroke-dasharray:none;stroke-dashoffset:0;stroke-opacity:1" />
    <path
       inkscape:connector-curvature="0"
       id="path4150-0-9"
       d="M 38.07727,976.9273 72.92753,907.22675"
       style="fill:none;fill-rule:evenodd;stroke:#000000;stroke-width:3;stroke-linecap:butt;stroke-linejoin:miter;stroke-miterlimit:4;stroke-dasharray:none;stroke-opacity:1;marker-start:url(#Arrow1Mstart-6)" />
    <path
       sodipodi:open="true"
       d="m 501.40499,963.12908 a 17.033802,17.033802 0 0 1 -19.43305,-14.10757 17.033802,17.033802 0 0 1 13.9856,-19.52101 17.033802,17.033802 0 0 1 19.60821,13.86308 17.033802,17.033802 0 0 1 -13.74003,19.69464"
       sodipodi:end="1.3914165"
       sodipodi:start="1.4164645"
       sodipodi:ry="17.033802"
       sodipodi:rx="17.033802"
       sodipodi:cy="946.29773"
       sodipodi:cx="498.78656"
       sodipodi:type="arc"
       id="path4146-1"
       style="opacity:0.98999999;fill:#08dfbb;fill-opacity:1;fill-rule:evenodd;stroke:#000000;stroke-width:0.27643615;stroke-linecap:butt;stroke-linejoin:bevel;stroke-miterlimit:4;stroke-dasharray:none;stroke-dashoffset:0;stroke-opacity:1" />
    <path
       inkscape:connector-curvature="0"
       id="path4150-3"
       d="m 480.35636,982.88539 34.85026,-69.7005"
       style="fill:none;fill-rule:evenodd;stroke:#000000;stroke-width:3;stroke-linecap:butt;stroke-linejoin:miter;stroke-miterlimit:4;stroke-dasharray:none;stroke-opacity:1;marker-end:url(#Arrow2Mend-0)" />
    <path
       sodipodi:open="true"
       d="m 188.90501,901.62908 a 17.033802,17.033802 0 0 1 -19.43305,-14.10757 17.033802,17.033802 0 0 1 13.9856,-19.52101 17.033802,17.033802 0 0 1 19.6082,13.86308 17.033802,17.033802 0 0 1 -13.74002,19.69464"
       sodipodi:end="1.3914165"
       sodipodi:start="1.4164645"
       sodipodi:ry="17.033802"
       sodipodi:rx="17.033802"
       sodipodi:cy="884.79773"
       sodipodi:cx="186.28658"
       sodipodi:type="arc"
       id="path4146-0"
       style="opacity:0.98999999;fill:#08dfbb;fill-opacity:1;fill-rule:evenodd;stroke:#000000;stroke-width:0.27643615;stroke-linecap:butt;stroke-linejoin:bevel;stroke-miterlimit:4;stroke-dasharray:none;stroke-dashoffset:0;stroke-opacity:1" />
    <path
       inkscape:connector-curvature="0"
       id="path4150-39"
       d="m 168.35636,918.38541 34.85026,-69.70052"
       style="fill:none;fill-rule:evenodd;stroke:#000000;stroke-width:3;stroke-linecap:butt;stroke-linejoin:miter;stroke-miterlimit:4;stroke-dasharray:none;stroke-opacity:1;marker-end:url(#Arrow2Mend-03)" />
    <path
       sodipodi:open="true"
       d="m 370.27453,901.84111 a 17.033802,17.033802 0 0 1 -19.43305,-14.10756 17.033802,17.033802 0 0 1 13.9856,-19.52102 17.033802,17.033802 0 0 1 19.60821,13.86309 17.033802,17.033802 0 0 1 -13.74003,19.69463"
       sodipodi:end="1.3914165"
       sodipodi:start="1.4164645"
       sodipodi:ry="17.033802"
       sodipodi:rx="17.033802"
       sodipodi:cy="885.00977"
       sodipodi:cx="367.6561"
       sodipodi:type="arc"
       id="path4146-4-1"
       style="opacity:0.98999999;fill:#08dfbb;fill-opacity:1;fill-rule:evenodd;stroke:#000000;stroke-width:0.27643615;stroke-linecap:butt;stroke-linejoin:bevel;stroke-miterlimit:4;stroke-dasharray:none;stroke-dashoffset:0;stroke-opacity:1" />
    <path
       inkscape:connector-curvature="0"
       id="path4150-0-96"
       d="m 349.72588,918.59749 34.85026,-69.70057"
       style="fill:none;fill-rule:evenodd;stroke:#000000;stroke-width:3;stroke-linecap:butt;stroke-linejoin:miter;stroke-miterlimit:4;stroke-dasharray:none;stroke-opacity:1;marker-start:url(#Arrow1Mstart-1)" />
    <path
       sodipodi:open="true"
       d="m 279.75643,896.62908 a 17.033802,17.033802 0 0 1 -19.43305,-14.10757 17.033802,17.033802 0 0 1 13.9856,-19.52101 17.033802,17.033802 0 0 1 19.60821,13.86308 17.033802,17.033802 0 0 1 -13.74003,19.69464"
       sodipodi:end="1.3914165"
       sodipodi:start="1.4164645"
       sodipodi:ry="17.033802"
       sodipodi:rx="17.033802"
       sodipodi:cy="879.79773"
       sodipodi:cx="277.138"
       sodipodi:type="arc"
       id="path4146-5"
       style="opacity:0.98999999;fill:#08dfbb;fill-opacity:1;fill-rule:evenodd;stroke:#000000;stroke-width:0.27643615;stroke-linecap:butt;stroke-linejoin:bevel;stroke-miterlimit:4;stroke-dasharray:none;stroke-dashoffset:0;stroke-opacity:1" />
    <path
       inkscape:connector-curvature="0"
       id="path4150-6"
       d="m 259.20775,913.38541 34.85026,-69.70052"
       style="fill:none;fill-rule:evenodd;stroke:#000000;stroke-width:3;stroke-linecap:butt;stroke-linejoin:miter;stroke-miterlimit:4;stroke-dasharray:none;stroke-opacity:1;marker-end:url(#Arrow2Mend-3)" />
    <path
       sodipodi:open="true"
       d="m 127.12591,911.84111 a 17.033802,17.033802 0 0 1 -19.43305,-14.10756 17.033802,17.033802 0 0 1 13.9856,-19.52102 17.033802,17.033802 0 0 1 19.60821,13.86309 17.033802,17.033802 0 0 1 -13.74003,19.69463"
       sodipodi:end="1.3914165"
       sodipodi:start="1.4164645"
       sodipodi:ry="17.033802"
       sodipodi:rx="17.033802"
       sodipodi:cy="895.00977"
       sodipodi:cx="124.50748"
       sodipodi:type="arc"
       id="path4146-4-6"
       style="opacity:0.98999999;fill:#08dfbb;fill-opacity:1;fill-rule:evenodd;stroke:#000000;stroke-width:0.27643615;stroke-linecap:butt;stroke-linejoin:bevel;stroke-miterlimit:4;stroke-dasharray:none;stroke-dashoffset:0;stroke-opacity:1" />
    <path
       inkscape:connector-curvature="0"
       id="path4150-0-4"
       d="m 106.57727,928.59744 34.85026,-69.70052"
       style="fill:none;fill-rule:evenodd;stroke:#000000;stroke-width:3;stroke-linecap:butt;stroke-linejoin:miter;stroke-miterlimit:4;stroke-dasharray:none;stroke-opacity:1;marker-start:url(#Arrow1Mstart-9)" />
    <g
       id="g10740"
       transform="matrix(0.79947886,0,0,0.79947886,-165.44746,559.74739)">
      <g
         word-spacing="normal"
         letter-spacing="normal"
         font-size-adjust="none"
         font-stretch="normal"
         font-weight="normal"
         font-variant="normal"
         font-style="normal"
         stroke-miterlimit="10.433"
         xml:space="preserve"
         transform="matrix(0.50618673,0,0,-0.50618673,-88.582677,398.62205)"
         id="g10742"
         style="font-style:normal;font-variant:normal;font-weight:normal;font-stretch:normal;letter-spacing:normal;word-spacing:normal;text-anchor:start;fill:none;fill-opacity:1;fill-rule:evenodd;stroke:#000000;stroke-linecap:butt;stroke-linejoin:miter;stroke-miterlimit:10.43299961;stroke-dasharray:none;stroke-dashoffset:0;stroke-opacity:1"><path
           id="path10744"
           d="m 784.57,224.77 0,0.01 0,0.02 0,0.02 0,0.02 0,0.01 -0.01,0.02 0,0.01 0,0.02 -0.01,0.01 0,0.02 -0.01,0.01 0,0.02 -0.01,0.01 -0.01,0.01 0,0.02 -0.01,0.01 -0.01,0.02 -0.02,0.03 -0.02,0.02 -0.01,0.03 -0.02,0.02 -0.02,0.03 -0.02,0.03 -0.01,0.02 c -2.3,2.44 -5.68,6.48 -7.78,14.6 -1.14,4.53 -1.59,9.66 -1.59,14.29 0,13.11 3.14,22.27 9.11,28.75 0.45,0.45 0.45,0.54 0.45,0.65 0,0.49 -0.39,0.49 -0.59,0.49 -0.75,0 -3.44,-2.99 -4.09,-3.73 -5.08,-6.03 -8.32,-15 -8.32,-26.1 0,-7.08 1.25,-17.09 7.77,-25.51 0.5,-0.6 3.74,-4.38 4.64,-4.38 0.2,0 0.59,0 0.59,0.5 z"
           inkscape:connector-curvature="0"
           style="fill:#000000;stroke-width:0" /><polygon
           id="polygon10746"
           points="807.45,286.57 800.78,279.8 801.68,278.9 807.45,283.98 813.18,278.9 814.08,279.8 "
           style="fill:#000000;stroke-width:0" /><path
           id="path10748"
           d="m 819.13,273.62 0,0.02 0,0.01 0,0.02 -0.01,0.02 0,0.01 0,0.02 -0.01,0.02 0,0.02 -0.01,0.02 -0.01,0.02 -0.01,0.02 -0.01,0.02 -0.01,0.02 -0.01,0.02 -0.01,0.02 -0.02,0.02 -0.01,0.02 -0.02,0.02 -0.02,0.02 -0.02,0.02 -0.02,0.02 -0.02,0.01 -0.03,0.02 -0.02,0.01 -0.03,0.01 -0.02,0.01 -0.01,0 -0.02,0.01 -0.01,0 -0.02,0.01 -0.02,0 -0.01,0.01 -0.02,0 -0.02,0 -0.02,0 -0.02,0 -0.02,0.01 -0.02,0 -0.02,0 c -0.25,0 -0.3,-0.05 -0.9,-0.75 l -2.39,-2.84 c -1.29,2.34 -3.88,3.59 -7.12,3.59 -6.33,0 -12.3,-5.73 -12.3,-11.76 0,-4.03 2.64,-6.32 5.18,-7.07 l 5.33,-1.39 c 1.84,-0.45 4.58,-1.2 4.58,-5.29 0,-4.48 -4.08,-9.16 -8.97,-9.16 -3.19,0 -8.71,1.09 -8.71,7.27 0,1.2 0.25,2.39 0.29,2.69 0.05,0.2 0.11,0.25 0.11,0.35 0,0.5 -0.35,0.55 -0.6,0.55 -0.25,0 -0.35,-0.05 -0.5,-0.2 -0.2,-0.2 -2.99,-11.56 -2.99,-11.71 0,-0.3 0.25,-0.5 0.55,-0.5 0.25,0 0.3,0.05 0.89,0.75 l 2.45,2.84 c 2.14,-2.89 5.52,-3.59 8.42,-3.59 6.77,0 12.65,6.63 12.65,12.81 0,3.44 -1.7,5.13 -2.45,5.83 -1.14,1.14 -1.88,1.34 -6.32,2.48 -1.1,0.3 -2.89,0.8 -3.34,0.9 -1.34,0.45 -3.04,1.89 -3.04,4.53 0,4.04 3.99,8.27 8.72,8.27 4.13,0 7.17,-2.14 7.17,-7.72 0,-1.59 -0.2,-2.49 -0.2,-2.79 0,-0.05 0,-0.5 0.6,-0.5 0.5,0 0.55,0.15 0.75,1 z"
           inkscape:connector-curvature="0"
           style="fill:#000000;stroke-width:0" /><path
           id="path10750"
           d="m 828.68,254.18 0,0.04 0,0.04 0,0.04 0,0.04 0,0.04 0,0.04 0,0.03 0,0.04 -0.01,0.03 0,0.03 0,0.04 0,0.03 -0.01,0.02 0,0.03 0,0.03 -0.01,0.03 0,0.02 0,0.02 -0.02,0.05 -0.01,0.04 -0.01,0.04 -0.02,0.03 -0.02,0.03 -0.02,0.03 -0.03,0.03 -0.02,0.02 -0.03,0.02 -0.04,0.02 -0.03,0.01 -0.04,0.01 -0.05,0.02 -0.05,0 -0.02,0.01 -0.03,0 -0.03,0.01 -0.02,0 -0.03,0 -0.03,0 -0.04,0 -0.03,0.01 -0.03,0 -0.04,0 -0.03,0 -0.04,0 -0.04,0 -0.04,0 -0.04,0 -0.04,0 -0.05,0 -0.04,0 c -2.24,-2.19 -5.41,-2.23 -6.84,-2.23 l 0,-1.25 c 0.84,0 3.14,0 5.05,0.97 l 0,-17.78 c 0,-1.15 0,-1.61 -3.48,-1.61 l -1.33,0 0,-1.25 12.45,0 0,1.25 -1.32,0 c -3.49,0 -3.49,0.46 -3.49,1.61 z"
           inkscape:connector-curvature="0"
           style="fill:#000000;stroke-width:0" /><path
           id="path10752"
           d="m 845.68,235.7 -0.03,-0.12 -0.04,-0.11 -0.05,-0.12 -0.04,-0.13 -0.06,-0.12 -0.06,-0.13 -0.06,-0.12 -0.07,-0.13 -0.07,-0.13 -0.07,-0.13 -0.08,-0.13 -0.09,-0.12 -0.09,-0.13 -0.09,-0.12 -0.1,-0.12 -0.1,-0.12 -0.11,-0.12 -0.11,-0.11 -0.11,-0.1 -0.12,-0.1 -0.12,-0.1 -0.13,-0.09 -0.13,-0.08 -0.13,-0.08 -0.14,-0.07 -0.14,-0.06 -0.15,-0.05 -0.15,-0.05 -0.15,-0.03 -0.16,-0.03 -0.16,-0.02 -0.16,0 c -0.11,0 -1.16,0 -1.89,0.49 1.43,0.45 1.53,1.7 1.53,1.92 0,0.76 -0.58,1.28 -1.39,1.28 -0.98,0 -1.99,-0.83 -1.99,-2.12 0,-1.75 1.95,-2.55 3.67,-2.55 1.6,0 3.03,1.01 3.9,2.48 0.84,-1.85 2.76,-2.48 4.15,-2.48 4.01,0 6.14,4.36 6.14,5.33 0,0.46 -0.46,0.46 -0.56,0.46 -0.49,0 -0.52,-0.17 -0.67,-0.59 -0.73,-2.41 -2.82,-4.22 -4.77,-4.22 -1.4,0 -2.13,0.94 -2.13,2.27 0,0.9 0.84,4.07 1.82,7.94 0.69,2.69 2.26,3.56 3.41,3.56 0.07,0 1.15,0 1.89,-0.49 -1.12,-0.31 -1.54,-1.29 -1.54,-1.91 0,-0.77 0.59,-1.3 1.4,-1.3 0.8,0 1.95,0.67 1.95,2.13 0,1.96 -2.23,2.55 -3.63,2.55 -1.74,0 -3.14,-1.15 -3.9,-2.48 -0.63,1.43 -2.23,2.48 -4.19,2.48 -3.9,0 -6.13,-4.29 -6.13,-5.34 0,-0.45 0.49,-0.45 0.59,-0.45 0.45,0 0.49,0.14 0.66,0.59 0.87,2.72 3.07,4.22 4.78,4.22 1.15,0 2.09,-0.63 2.09,-2.3 0,-0.7 -0.42,-2.44 -0.73,-3.63 z"
           inkscape:connector-curvature="0"
           style="fill:#000000;stroke-width:0" /><polygon
           id="polygon10754"
           points="933.45,286.57 926.78,279.8 927.68,278.9 933.45,283.98 939.18,278.9 940.08,279.8 "
           style="fill:#000000;stroke-width:0" /><path
           id="path10756"
           d="m 944.13,273.62 0,0.02 0,0.01 0,0.02 -0.01,0.02 0,0.01 0,0.02 -0.01,0.02 0,0.02 -0.01,0.02 -0.01,0.02 -0.01,0.02 -0.01,0.02 -0.01,0.02 -0.01,0.02 -0.01,0.02 -0.02,0.02 -0.01,0.02 -0.02,0.02 -0.02,0.02 -0.02,0.02 -0.02,0.02 -0.02,0.01 -0.03,0.02 -0.02,0.01 -0.03,0.01 -0.02,0.01 -0.01,0 -0.02,0.01 -0.01,0 -0.02,0.01 -0.02,0 -0.01,0.01 -0.02,0 -0.02,0 -0.02,0 -0.02,0 -0.02,0.01 -0.02,0 -0.02,0 c -0.25,0 -0.3,-0.05 -0.9,-0.75 l -2.39,-2.84 c -1.29,2.34 -3.88,3.59 -7.12,3.59 -6.33,0 -12.3,-5.73 -12.3,-11.76 0,-4.03 2.64,-6.32 5.18,-7.07 l 5.33,-1.39 c 1.84,-0.45 4.58,-1.2 4.58,-5.29 0,-4.48 -4.08,-9.16 -8.97,-9.16 -3.19,0 -8.71,1.09 -8.71,7.27 0,1.2 0.25,2.39 0.29,2.69 0.05,0.2 0.11,0.25 0.11,0.35 0,0.5 -0.35,0.55 -0.6,0.55 -0.25,0 -0.35,-0.05 -0.5,-0.2 -0.2,-0.2 -2.99,-11.56 -2.99,-11.71 0,-0.3 0.25,-0.5 0.55,-0.5 0.25,0 0.3,0.05 0.89,0.75 l 2.45,2.84 c 2.14,-2.89 5.52,-3.59 8.42,-3.59 6.77,0 12.65,6.63 12.65,12.81 0,3.44 -1.7,5.13 -2.45,5.83 -1.14,1.14 -1.88,1.34 -6.32,2.48 -1.1,0.3 -2.89,0.8 -3.34,0.9 -1.34,0.45 -3.04,1.89 -3.04,4.53 0,4.04 3.99,8.27 8.72,8.27 4.13,0 7.17,-2.14 7.17,-7.72 0,-1.59 -0.2,-2.49 -0.2,-2.79 0,-0.05 0,-0.5 0.6,-0.5 0.5,0 0.55,0.15 0.75,1 z"
           inkscape:connector-curvature="0"
           style="fill:#000000;stroke-width:0" /><path
           id="path10758"
           d="m 954.68,254.18 0,0.04 0,0.04 0,0.04 0,0.04 0,0.04 0,0.04 0,0.03 0,0.04 -0.01,0.03 0,0.03 0,0.04 0,0.03 -0.01,0.02 0,0.03 0,0.03 -0.01,0.03 0,0.02 0,0.02 -0.02,0.05 -0.01,0.04 -0.01,0.04 -0.02,0.03 -0.02,0.03 -0.02,0.03 -0.03,0.03 -0.02,0.02 -0.03,0.02 -0.04,0.02 -0.03,0.01 -0.04,0.01 -0.05,0.02 -0.05,0 -0.02,0.01 -0.03,0 -0.03,0.01 -0.02,0 -0.03,0 -0.03,0 -0.04,0 -0.03,0.01 -0.03,0 -0.04,0 -0.03,0 -0.04,0 -0.04,0 -0.04,0 -0.04,0 -0.04,0 -0.05,0 -0.04,0 c -2.24,-2.19 -5.41,-2.23 -6.84,-2.23 l 0,-1.25 c 0.84,0 3.14,0 5.05,0.97 l 0,-17.78 c 0,-1.15 0,-1.61 -3.48,-1.61 l -1.33,0 0,-1.25 12.45,0 0,1.25 -1.32,0 c -3.49,0 -3.49,0.46 -3.49,1.61 z"
           inkscape:connector-curvature="0"
           style="fill:#000000;stroke-width:0" /><path
           id="path10760"
           d="m 982.39,245.15 0,0.02 0.01,0.02 0.01,0.02 0,0.02 0.01,0.02 0,0.02 0.01,0.04 0.01,0.04 0.01,0.03 0.01,0.03 0.01,0.03 0.01,0.03 0,0.03 0.01,0.02 0,0.03 0.01,0.02 0,0.02 0.01,0.02 0,0.02 0,0.02 0.01,0.02 0,0.02 0,0.02 0,0.03 0,0.03 0.01,0.04 0,0.03 0,0.02 0,0.02 0,0.01 0,0.02 c 0,0.7 -0.56,1.12 -1.15,1.12 -0.39,0 -1.05,-0.18 -1.43,-0.84 -0.11,-0.21 -0.39,-1.32 -0.56,-2.02 l -0.73,-2.9 c -0.21,-0.83 -1.29,-5.23 -1.4,-5.61 -0.03,0 -1.57,-3.03 -4.29,-3.03 -2.37,0 -2.37,2.27 -2.37,2.89 0,1.89 0.8,4.08 1.85,6.77 0.42,1.11 0.59,1.53 0.59,2.12 0,1.68 -1.43,2.97 -3.31,2.97 -3.52,0 -5.09,-4.74 -5.09,-5.34 0,-0.45 0.49,-0.45 0.59,-0.45 0.49,0 0.52,0.17 0.63,0.56 0.87,2.89 2.37,4.25 3.76,4.25 0.6,0 0.88,-0.38 0.88,-1.22 0,-0.8 -0.32,-1.57 -0.49,-2.02 -1.67,-4.26 -2.03,-5.55 -2.03,-7.08 0,-0.59 0,-2.23 1.37,-3.35 1.08,-0.91 2.54,-1.08 3.48,-1.08 1.4,0 2.65,0.53 3.8,1.57 -0.45,-1.92 -0.83,-3.38 -2.3,-5.13 -0.94,-1.07 -2.33,-2.23 -4.18,-2.23 -0.25,0 -1.88,0 -2.62,1.16 1.88,0.2 1.88,1.88 1.88,1.91 0,1.12 -1,1.33 -1.36,1.33 -0.87,0 -2.02,-0.7 -2.02,-2.3 0,-1.78 1.68,-3.07 4.15,-3.07 3.52,0 7.81,2.71 8.89,7.07 z"
           inkscape:connector-curvature="0"
           style="fill:#000000;stroke-width:0" /><polygon
           id="polygon10762"
           points="1057.4,286.57 1050.8,279.8 1051.7,278.9 1057.4,283.98 1063.2,278.9 1064.1,279.8 "
           style="fill:#000000;stroke-width:0" /><path
           id="path10764"
           d="m 1068.1,273.62 0,0.02 0,0.01 0,0.02 0,0.02 0,0.01 0,0.02 0,0.02 0,0.02 0,0.02 0,0.02 0,0.02 0,0.02 0,0.02 0,0.02 -0.1,0.02 0,0.02 0,0.02 0,0.02 0,0.02 0,0.02 -0.1,0.02 0,0.01 0,0.02 0,0.01 -0.1,0.01 0,0.01 0,0 0,0.01 0,0 -0.1,0.01 0,0 0,0.01 0,0 0,0 0,0 -0.1,0 0,0.01 0,0 0,0 c -0.3,0 -0.3,-0.05 -0.9,-0.75 l -2.4,-2.84 c -1.3,2.34 -3.9,3.59 -7.1,3.59 -6.4,0 -12.3,-5.73 -12.3,-11.76 0,-4.03 2.6,-6.32 5.2,-7.07 l 5.3,-1.39 c 1.8,-0.45 4.6,-1.2 4.6,-5.29 0,-4.48 -4.1,-9.16 -9,-9.16 -3.2,0 -8.7,1.09 -8.7,7.27 0,1.2 0.2,2.39 0.3,2.69 0,0.2 0.1,0.25 0.1,0.35 0,0.5 -0.4,0.55 -0.6,0.55 -0.3,0 -0.4,-0.05 -0.5,-0.2 -0.2,-0.2 -3,-11.56 -3,-11.71 0,-0.3 0.2,-0.5 0.5,-0.5 0.3,0 0.3,0.05 0.9,0.75 l 2.5,2.84 c 2.1,-2.89 5.5,-3.59 8.4,-3.59 6.8,0 12.7,6.63 12.7,12.81 0,3.44 -1.8,5.13 -2.5,5.83 -1.1,1.14 -1.9,1.34 -6.3,2.48 -1.1,0.3 -2.9,0.8 -3.4,0.9 -1.3,0.45 -3,1.89 -3,4.53 0,4.04 4,8.27 8.7,8.27 4.1,0 7.2,-2.14 7.2,-7.72 0,-1.59 -0.2,-2.49 -0.2,-2.79 0,-0.05 0,-0.5 0.6,-0.5 0.5,0 0.5,0.15 0.7,1 z"
           inkscape:connector-curvature="0"
           style="fill:#000000;stroke-width:0" /><path
           id="path10766"
           d="m 1078.7,254.18 0,0.04 0,0.04 0,0.04 0,0.04 0,0.04 0,0.04 0,0.03 0,0.04 0,0.03 0,0.03 0,0.04 0,0.03 0,0.02 0,0.03 0,0.03 0,0.03 -0.1,0.02 0,0.02 0,0.05 0,0.04 0,0.04 0,0.03 0,0.03 -0.1,0.03 0,0.03 0,0.02 0,0.02 -0.1,0.02 0,0.01 0,0.01 -0.1,0.02 0,0 -0.1,0.01 0,0 0,0.01 0,0 -0.1,0 0,0 0,0 -0.1,0.01 0,0 0,0 -0.1,0 0,0 0,0 -0.1,0 0,0 -0.1,0 0,0 -0.1,0 c -2.2,-2.19 -5.4,-2.23 -6.8,-2.23 l 0,-1.25 c 0.8,0 3.1,0 5.1,0.97 l 0,-17.78 c 0,-1.15 0,-1.61 -3.5,-1.61 l -1.4,0 0,-1.25 12.5,0 0,1.25 -1.3,0 c -3.5,0 -3.5,0.46 -3.5,1.61 z"
           inkscape:connector-curvature="0"
           style="fill:#000000;stroke-width:0" /><path
           id="path10768"
           d="m 1092.9,235.07 0.1,0.17 0.2,0.16 0.2,0.17 0.1,0.16 0.2,0.18 0.1,0.09 0.1,0.09 0.1,0.09 0.1,0.1 0.1,0.1 0.1,0.11 0.2,0.11 0.1,0.11 0.1,0.12 0.2,0.13 0.1,0.13 0.2,0.14 0.2,0.14 0.1,0.15 0.2,0.16 0.2,0.16 0.2,0.17 0.3,0.19 0.2,0.18 0.2,0.2 0.3,0.21 0.3,0.22 c 0.7,0.59 3.3,2.69 4.3,3.66 2.1,2.09 3.5,3.87 3.5,4.29 0,0.42 -0.5,0.42 -0.6,0.42 -0.3,0 -0.4,-0.07 -0.6,-0.35 -1.1,-1.6 -1.8,-2.13 -2.7,-2.13 -0.4,0 -0.9,0.04 -2,1.05 -1.1,1.18 -1.9,1.43 -2.7,1.43 -2.8,0 -4.7,-3.04 -4.7,-4.08 0,-0.32 0.4,-0.42 0.6,-0.42 0.4,0 0.5,0.1 0.6,0.49 0.6,1.22 2.5,1.29 3.1,1.29 0.8,0 1.7,-0.21 2.2,-0.32 1.9,-0.41 2.1,-0.41 3,-0.41 -0.9,-0.95 -1.5,-1.58 -4.8,-4.22 -2.8,-2.17 -3.7,-3.04 -4.4,-3.73 -2.1,-2.06 -3.1,-3.6 -3.1,-3.91 0,-0.42 0.5,-0.42 0.6,-0.42 0.4,0 0.4,0.07 0.6,0.35 0.9,1.32 2,2.13 3.2,2.13 0.4,0 1,-0.04 1.9,-0.91 1.1,-1.04 1.8,-1.57 2.9,-1.57 3.7,0 6.1,4.22 6.1,5.4 0,0.42 -0.4,0.46 -0.6,0.46 -0.4,0 -0.5,-0.17 -0.7,-0.56 -0.6,-1.74 -2.7,-2.58 -4.4,-2.58 -0.8,0 -1.7,0.18 -2.5,0.38 -1.6,0.35 -1.9,0.35 -2.5,0.35 -0.1,0 -0.6,0 -0.8,-0.03 z"
           inkscape:connector-curvature="0"
           style="fill:#000000;stroke-width:0" /><path
           id="path10770"
           d="m 1125.2,254.1 0,1.36 -0.1,1.43 -0.1,1.47 -0.1,1.53 -0.2,1.57 -0.2,1.6 -0.4,1.64 -0.3,1.65 -0.3,0.84 -0.2,0.83 -0.3,0.84 -0.3,0.85 -0.3,0.84 -0.3,0.84 -0.3,0.84 -0.4,0.84 -0.4,0.83 -0.4,0.84 -0.5,0.82 -0.5,0.83 -0.5,0.81 -0.5,0.81 -0.6,0.81 -0.6,0.79 c -0.5,0.6 -3.7,4.38 -4.6,4.38 -0.3,0 -0.6,-0.1 -0.6,-0.49 0,-0.2 0.1,-0.36 0.3,-0.5 2.4,-2.59 5.6,-6.63 7.7,-14.55 1.1,-4.53 1.6,-9.66 1.6,-14.29 0,-5.04 -0.5,-10.12 -1.8,-15 -1.9,-6.97 -4.8,-10.96 -7.4,-13.75 -0.4,-0.45 -0.4,-0.55 -0.4,-0.64 0,-0.4 0.3,-0.5 0.6,-0.5 0.7,0 3.5,3.03 4.1,3.73 5.1,6.03 8.3,15 8.3,26.1 z"
           inkscape:connector-curvature="0"
           style="fill:#000000;stroke-width:0" /><path
           id="path10772"
           d="m 1159.6,252.83 0.1,0 0,0 0.1,0 0.1,0 0.1,0 0.1,0 0.1,0.01 0,0 0.1,0 0.1,0.01 0,0 0.1,0.01 0.1,0.01 0,0.01 0.1,0.01 0,0.01 0,0.02 0.1,0.02 0,0.02 0,0.02 0.1,0.02 0,0.03 0,0.03 0,0.03 0.1,0.04 0,0.03 0,0.04 0,0.05 0,0.05 0,0.05 0,0.05 0,0.06 0,0.07 c 0.1,34.92 4.2,63.91 21.6,88.27 0.3,0.45 0.3,0.54 0.3,0.65 0,0.49 -0.3,0.49 -1.1,0.49 -0.8,0 -0.9,0 -1,-0.1 -0.2,-0.14 -6.5,-7.42 -11.6,-17.43 -6.5,-13.15 -10.7,-28.25 -12.5,-46.38 -0.2,-1.54 -1.2,-11.9 -1.2,-23.71 l 0,-1.94 c 0.1,-0.55 0.3,-0.55 1.4,-0.55 z"
           inkscape:connector-curvature="0"
           style="fill:#000000;stroke-width:0" /><path
           id="path10774"
           d="m 1156.9,254.49 -0.1,0 -0.1,0 -0.1,0 -0.1,0 0,0 -0.1,0 -0.1,0 -0.1,-0.01 0,0 -0.1,0 0,-0.01 -0.1,-0.01 0,0 -0.1,-0.01 0,-0.01 -0.1,-0.02 0,-0.01 -0.1,-0.02 0,-0.01 0,-0.02 0,-0.02 -0.1,-0.03 0,-0.02 0,-0.03 0,-0.03 0,-0.03 -0.1,-0.04 0,-0.04 0,-0.04 0,-0.04 0,-0.05 0,-0.05 0,-1.94 c 0,-30.44 5.4,-48.27 7,-53.3 3.4,-11.06 8.9,-22.72 17.2,-32.98 0.7,-0.89 1,-1.14 1.1,-1.24 0.1,-0.05 0.2,-0.1 1,-0.1 0.8,0 1.1,0 1.1,0.5 0,0.1 0,0.2 -0.3,0.64 -16.5,23.02 -21.5,50.71 -21.6,88.27 0,0.7 -0.3,0.7 -1.4,0.7 z"
           inkscape:connector-curvature="0"
           style="fill:#000000;stroke-width:0" /><path
           id="path10776"
           d="m 1235.9,332.39 0.1,0.15 0,0.14 0.1,0.14 0,0.13 0,0.12 0.1,0.12 0,0.11 0,0.11 0.1,0.1 0,0.09 0.1,0.09 0,0.08 0.1,0.08 0,0.07 0.1,0.07 0.1,0.06 0.1,0.06 0.1,0.05 0.1,0.05 0.1,0.04 0.1,0.04 0.1,0.03 0.1,0.03 0.1,0.02 0.1,0.01 0.1,0.01 0,0.02 0.1,0.01 0.1,0 0.1,0.01 0.1,0.01 0.1,0.01 0.1,0 0.1,0.01 0.1,0 0.1,0.01 0.1,0 0.1,0 0.1,0.01 0.2,0 0.1,0 c 0.8,0 1.3,0 1.3,0.95 0,0.44 -0.3,0.59 -0.7,0.59 l -12.8,0 c -0.5,0 -1.1,0 -1.1,-0.99 0,-0.55 0.4,-0.55 1.7,-0.55 1.2,0 1.7,0 2.9,-0.1 1.2,-0.15 1.6,-0.3 1.6,-1 0,-0.3 -0.1,-0.65 -0.2,-1.04 l -5.8,-22.87 c -1.2,-4.83 -4.5,-7.47 -7.1,-7.47 -1.3,0 -4,0.5 -4.8,3.09 0.2,-0.05 0.5,-0.05 0.6,-0.05 2,0 3.3,1.69 3.3,3.19 0,1.59 -1.4,2.09 -2.2,2.09 -0.9,0 -3.4,-0.6 -3.4,-3.99 0,-3.08 2.7,-5.43 6.6,-5.43 4.6,0 9.8,3.29 11,8.22 z"
           inkscape:connector-curvature="0"
           style="fill:#000000;stroke-width:0" /><path
           id="path10778"
           d="m 1245.7,297.7 -0.1,-0.12 0,-0.11 0,-0.12 -0.1,-0.13 0,-0.12 -0.1,-0.13 -0.1,-0.12 0,-0.13 -0.1,-0.13 -0.1,-0.13 -0.1,-0.13 0,-0.12 -0.1,-0.13 -0.1,-0.12 -0.1,-0.12 -0.1,-0.12 -0.1,-0.12 -0.1,-0.11 -0.2,-0.1 -0.1,-0.1 -0.1,-0.1 -0.1,-0.09 -0.1,-0.08 -0.2,-0.08 -0.1,-0.07 -0.2,-0.06 -0.1,-0.05 -0.2,-0.05 -0.1,-0.03 -0.2,-0.03 -0.1,-0.02 -0.2,0 c -0.1,0 -1.2,0 -1.9,0.49 1.4,0.45 1.6,1.7 1.6,1.92 0,0.76 -0.6,1.28 -1.4,1.28 -1,0 -2,-0.83 -2,-2.12 0,-1.75 1.9,-2.55 3.6,-2.55 1.6,0 3.1,1.01 3.9,2.48 0.9,-1.85 2.8,-2.48 4.2,-2.48 4,0 6.1,4.36 6.1,5.33 0,0.46 -0.4,0.46 -0.5,0.46 -0.5,0 -0.6,-0.17 -0.7,-0.59 -0.7,-2.41 -2.8,-4.22 -4.8,-4.22 -1.4,0 -2.1,0.94 -2.1,2.26 0,0.91 0.8,4.08 1.8,7.95 0.7,2.69 2.3,3.56 3.4,3.56 0.1,0 1.2,0 1.9,-0.49 -1.1,-0.31 -1.5,-1.29 -1.5,-1.91 0,-0.77 0.6,-1.3 1.4,-1.3 0.8,0 1.9,0.67 1.9,2.13 0,1.96 -2.2,2.55 -3.6,2.55 -1.7,0 -3.1,-1.15 -3.9,-2.48 -0.6,1.43 -2.2,2.48 -4.2,2.48 -3.9,0 -6.1,-4.29 -6.1,-5.34 0,-0.45 0.5,-0.45 0.6,-0.45 0.4,0 0.5,0.14 0.6,0.59 0.9,2.72 3.1,4.22 4.8,4.22 1.2,0 2.1,-0.63 2.1,-2.3 0,-0.7 -0.4,-2.44 -0.7,-3.63 z"
           inkscape:connector-curvature="0"
           style="fill:#000000;stroke-width:0" /><path
           id="path10780"
           d="m 1344.9,305.89 0,-0.18 -0.1,-0.17 0,-0.16 -0.1,-0.15 0,-0.15 0,-0.13 -0.1,-0.13 0,-0.12 -0.1,-0.11 -0.1,-0.11 0,-0.1 -0.1,-0.09 -0.1,-0.09 -0.1,-0.07 -0.1,-0.08 -0.1,-0.06 -0.1,-0.07 -0.1,-0.05 -0.1,-0.05 -0.2,-0.05 -0.1,-0.04 -0.1,-0.02 -0.1,-0.02 -0.1,-0.01 -0.1,-0.02 -0.1,-0.01 -0.1,-0.01 -0.1,-0.02 -0.1,-0.01 -0.2,-0.01 -0.1,-0.01 -0.1,-0.01 -0.1,0 -0.2,-0.01 -0.1,-0.01 -0.2,0 -0.1,-0.01 -0.2,0 -0.1,0 -0.2,0 -0.2,-0.01 -0.1,0 -0.2,0 c -0.9,0 -1.4,0 -1.4,-0.94 0,-0.6 0.4,-0.6 1.4,-0.6 l 16.5,0 -0.9,1.54 -5.7,0 c -0.6,0 -0.7,0 -1.1,0.05 -0.4,0.05 -0.6,0.11 -0.6,0.5 0,0.15 0,0.25 0.3,1.15 l 6.8,27.35 c 0.4,1.74 0.5,1.89 2.7,1.89 l 5.3,0 c 4.9,0 9,-2.64 9,-9.22 0,-2.44 -1,-10.61 -5.2,-16.09 -1.5,-1.84 -5.4,-5.63 -11.5,-5.63 l 0.9,-1.54 c 10.3,0 20.2,10.51 20.2,21.42 0,7.02 -4.3,12.6 -11.8,12.6 l -16.7,0 c -0.9,0 -1.5,0 -1.5,-0.95 0,-0.59 0.5,-0.59 1.5,-0.59 0.6,0 1.5,-0.05 2.1,-0.1 0.8,-0.1 1.1,-0.25 1.1,-0.8 0,-0.2 0,-0.35 -0.2,-0.94 z"
           inkscape:connector-curvature="0"
           style="fill:#000000;stroke-width:0" /><path
           id="path10782"
           d="m 1383.9,297.07 0.1,0.17 0.2,0.16 0.2,0.17 0.1,0.16 0.2,0.18 0.1,0.09 0.1,0.09 0.1,0.09 0.1,0.1 0.1,0.1 0.1,0.11 0.2,0.11 0.1,0.11 0.1,0.12 0.2,0.13 0.1,0.13 0.2,0.14 0.2,0.14 0.1,0.15 0.2,0.16 0.2,0.16 0.2,0.17 0.3,0.19 0.2,0.18 0.2,0.2 0.3,0.21 0.3,0.22 c 0.7,0.59 3.3,2.69 4.3,3.66 2.1,2.09 3.5,3.87 3.5,4.29 0,0.42 -0.5,0.42 -0.6,0.42 -0.3,0 -0.4,-0.07 -0.6,-0.35 -1.1,-1.6 -1.8,-2.13 -2.7,-2.13 -0.4,0 -0.9,0.04 -2,1.05 -1.1,1.18 -1.9,1.43 -2.7,1.43 -2.8,0 -4.7,-3.04 -4.7,-4.08 0,-0.32 0.4,-0.42 0.6,-0.42 0.4,0 0.5,0.1 0.6,0.49 0.6,1.22 2.5,1.29 3.1,1.29 0.8,0 1.7,-0.21 2.2,-0.32 1.9,-0.41 2.1,-0.41 3,-0.41 -0.9,-0.95 -1.5,-1.57 -4.8,-4.22 -2.8,-2.17 -3.7,-3.04 -4.4,-3.73 -2.1,-2.06 -3.1,-3.6 -3.1,-3.91 0,-0.42 0.5,-0.42 0.6,-0.42 0.4,0 0.4,0.07 0.6,0.35 0.9,1.32 2,2.13 3.2,2.13 0.4,0 1,-0.04 1.9,-0.91 1.1,-1.04 1.8,-1.57 2.9,-1.57 3.7,0 6.1,4.22 6.1,5.4 0,0.42 -0.4,0.46 -0.6,0.46 -0.4,0 -0.5,-0.17 -0.7,-0.56 -0.6,-1.74 -2.7,-2.58 -4.4,-2.58 -0.8,0 -1.7,0.18 -2.5,0.38 -1.6,0.35 -1.9,0.35 -2.5,0.35 -0.1,0 -0.6,0 -0.8,-0.03 z"
           inkscape:connector-curvature="0"
           style="fill:#000000;stroke-width:0" /><path
           id="path10784"
           d="m 1486.9,317.94 0,0.75 0,0.74 0,0.75 -0.1,0.74 0,0.75 -0.1,0.74 0,0.74 -0.1,0.73 -0.1,0.73 -0.2,0.73 -0.1,0.72 -0.2,0.72 -0.3,0.71 -0.2,0.71 -0.3,0.7 -0.1,0.35 -0.2,0.35 c -2.3,4.78 -6.3,5.58 -8.5,5.58 -2.9,0 -6.6,-1.3 -8.6,-5.93 -1.6,-3.44 -1.9,-7.32 -1.9,-11.31 0,-3.74 0.2,-8.22 2.3,-12.01 2.1,-4.03 5.8,-5.03 8.2,-5.03 l 0,1.1 c -1.9,0 -4.9,1.25 -5.8,6.03 -0.5,2.99 -0.5,7.57 -0.5,10.51 0,3.19 0,6.47 0.4,9.16 0.9,5.93 4.7,6.38 5.9,6.38 1.7,0 4.9,-0.9 5.9,-5.83 0.5,-2.79 0.5,-6.57 0.5,-9.71 0,-3.74 0,-7.13 -0.6,-10.31 -0.7,-4.73 -3.6,-6.23 -5.8,-6.23 l 0,0 0,-1.1 c 2.7,0 6.5,1.05 8.7,5.78 1.6,3.44 1.8,7.32 1.8,11.26 z"
           inkscape:connector-curvature="0"
           style="fill:#000000;stroke-width:0" /><path
           id="path10786"
           d="m 1216.8,253.46 0.2,0 0.1,0 0.2,0 0.1,0.01 0.1,0 0,0.01 0.1,0.01 0.1,0.01 0,0.01 0.1,0.01 0.1,0.02 0.1,0.02 0,0.02 0.1,0.03 0,0.02 0.1,0.04 0,0.03 0.1,0.04 0,0.04 0.1,0.05 0,0.05 0,0.02 0.1,0.03 0,0.03 0,0.03 0,0.03 0,0.04 0,0.03 0,0.03 0,0.04 0,0.04 0.1,0.04 0,0.04 0,0.04 0,0.04 0,0.05 0,0.04 c 0,1 -0.9,1 -1.8,1 l -26.9,0 c -0.9,0 -1.8,0 -1.8,-1 0,-0.99 0.9,-0.99 1.8,-0.99 z"
           inkscape:connector-curvature="0"
           style="fill:#000000;stroke-width:0" /><path
           id="path10788"
           d="m 1230.9,245.89 0,-0.18 -0.1,-0.17 0,-0.16 -0.1,-0.15 0,-0.15 0,-0.13 -0.1,-0.13 0,-0.12 -0.1,-0.11 -0.1,-0.11 0,-0.1 -0.1,-0.09 -0.1,-0.09 -0.1,-0.07 -0.1,-0.08 -0.1,-0.06 -0.1,-0.07 -0.1,-0.05 -0.1,-0.05 -0.2,-0.05 -0.1,-0.04 -0.1,-0.02 -0.1,-0.02 -0.1,-0.01 -0.1,-0.02 -0.1,-0.01 -0.1,-0.01 -0.1,-0.02 -0.1,-0.01 -0.2,-0.01 -0.1,-0.01 -0.1,-0.01 -0.1,0 -0.2,-0.01 -0.1,-0.01 -0.2,0 -0.1,-0.01 -0.2,0 -0.1,0 -0.2,0 -0.2,-0.01 -0.1,0 -0.2,0 c -0.9,0 -1.4,0 -1.4,-0.94 0,-0.6 0.4,-0.6 1.4,-0.6 l 16.5,0 -0.9,1.54 -5.7,0 c -0.6,0 -0.7,0 -1.1,0.05 -0.4,0.06 -0.6,0.11 -0.6,0.5 0,0.15 0,0.25 0.3,1.15 l 6.8,27.35 c 0.4,1.74 0.5,1.89 2.7,1.89 l 5.3,0 c 4.9,0 9,-2.64 9,-9.22 0,-2.44 -1,-10.61 -5.2,-16.09 -1.5,-1.84 -5.4,-5.63 -11.5,-5.63 l 0.9,-1.54 c 10.3,0 20.2,10.51 20.2,21.42 0,7.02 -4.3,12.6 -11.8,12.6 l -16.7,0 c -0.9,0 -1.5,0 -1.5,-0.95 0,-0.59 0.5,-0.59 1.5,-0.59 0.6,0 1.5,-0.05 2.1,-0.1 0.8,-0.1 1.1,-0.25 1.1,-0.8 0,-0.2 0,-0.35 -0.2,-0.94 z"
           inkscape:connector-curvature="0"
           style="fill:#000000;stroke-width:0" /><path
           id="path10790"
           d="m 1269.9,237.07 0.1,0.17 0.2,0.16 0.2,0.17 0.1,0.16 0.2,0.18 0.1,0.09 0.1,0.09 0.1,0.09 0.1,0.1 0.1,0.1 0.1,0.11 0.2,0.11 0.1,0.11 0.1,0.12 0.2,0.13 0.1,0.13 0.2,0.14 0.2,0.14 0.1,0.15 0.2,0.16 0.2,0.16 0.2,0.17 0.3,0.19 0.2,0.18 0.2,0.2 0.3,0.21 0.3,0.22 c 0.7,0.59 3.3,2.69 4.3,3.66 2.1,2.09 3.5,3.87 3.5,4.29 0,0.42 -0.5,0.42 -0.6,0.42 -0.3,0 -0.4,-0.07 -0.6,-0.35 -1.1,-1.6 -1.8,-2.13 -2.7,-2.13 -0.4,0 -0.9,0.04 -2,1.05 -1.1,1.18 -1.9,1.43 -2.7,1.43 -2.8,0 -4.7,-3.04 -4.7,-4.08 0,-0.32 0.4,-0.42 0.6,-0.42 0.4,0 0.5,0.1 0.6,0.49 0.6,1.22 2.5,1.29 3.1,1.29 0.8,0 1.7,-0.21 2.2,-0.32 1.9,-0.41 2.1,-0.41 3,-0.41 -0.9,-0.95 -1.5,-1.58 -4.8,-4.22 -2.8,-2.17 -3.7,-3.04 -4.4,-3.73 -2.1,-2.06 -3.1,-3.6 -3.1,-3.91 0,-0.42 0.5,-0.42 0.6,-0.42 0.4,0 0.4,0.07 0.6,0.35 0.9,1.32 2,2.13 3.2,2.13 0.4,0 1,-0.04 1.9,-0.91 1.1,-1.04 1.8,-1.57 2.9,-1.57 3.7,0 6.1,4.22 6.1,5.4 0,0.42 -0.4,0.46 -0.6,0.46 -0.4,0 -0.5,-0.17 -0.7,-0.56 -0.6,-1.74 -2.7,-2.58 -4.4,-2.58 -0.8,0 -1.7,0.18 -2.5,0.38 -1.6,0.35 -1.9,0.35 -2.5,0.35 -0.1,0 -0.6,0 -0.8,-0.03 z"
           inkscape:connector-curvature="0"
           style="fill:#000000;stroke-width:0" /><path
           id="path10792"
           d="m 1369.9,272.39 0.1,0.15 0,0.14 0.1,0.14 0,0.13 0,0.12 0.1,0.12 0,0.11 0,0.11 0.1,0.1 0,0.09 0.1,0.09 0,0.08 0.1,0.08 0,0.07 0.1,0.07 0.1,0.06 0.1,0.06 0.1,0.05 0.1,0.05 0.1,0.04 0.1,0.04 0.1,0.03 0.1,0.03 0.1,0.02 0.1,0.01 0.1,0.01 0,0.02 0.1,0.01 0.1,0 0.1,0.01 0.1,0.01 0.1,0.01 0.1,0 0.1,0.01 0.1,0 0.1,0.01 0.1,0 0.1,0 0.1,0.01 0.2,0 0.1,0 c 0.8,0 1.3,0 1.3,0.95 0,0.44 -0.3,0.59 -0.7,0.59 l -12.8,0 c -0.5,0 -1.1,0 -1.1,-0.99 0,-0.55 0.4,-0.55 1.7,-0.55 1.2,0 1.7,0 2.9,-0.1 1.2,-0.15 1.6,-0.3 1.6,-1 0,-0.3 -0.1,-0.65 -0.2,-1.04 l -5.8,-22.87 c -1.2,-4.83 -4.5,-7.47 -7.1,-7.47 -1.3,0 -4,0.5 -4.8,3.09 0.2,-0.05 0.5,-0.05 0.6,-0.05 2,0 3.3,1.69 3.3,3.19 0,1.59 -1.4,2.09 -2.2,2.09 -0.9,0 -3.4,-0.6 -3.4,-3.99 0,-3.08 2.7,-5.43 6.6,-5.43 4.6,0 9.8,3.29 11,8.22 z"
           inkscape:connector-curvature="0"
           style="fill:#000000;stroke-width:0" /><path
           id="path10794"
           d="m 1390.4,247.15 0,0.02 0,0.02 0,0.02 0,0.02 0,0.02 0,0.02 0,0.04 0,0.04 0.1,0.03 0,0.03 0,0.03 0,0.03 0,0.03 0,0.02 0,0.03 0,0.02 0,0.02 0,0.02 0,0.02 0,0.02 0,0.02 0,0.02 0,0.02 0,0.03 0,0.03 0,0.04 0,0.03 0,0.02 0,0.02 0,0.01 0,0.02 c 0,0.7 -0.5,1.12 -1.1,1.12 -0.4,0 -1.1,-0.18 -1.5,-0.84 -0.1,-0.21 -0.3,-1.32 -0.5,-2.02 l -0.7,-2.9 c -0.3,-0.83 -1.3,-5.23 -1.4,-5.61 -0.1,0 -1.6,-3.03 -4.3,-3.03 -2.4,0 -2.4,2.27 -2.4,2.89 0,1.89 0.8,4.08 1.8,6.77 0.5,1.11 0.6,1.53 0.6,2.12 0,1.68 -1.4,2.97 -3.3,2.97 -3.5,0 -5.1,-4.74 -5.1,-5.34 0,-0.45 0.5,-0.45 0.6,-0.45 0.5,0 0.6,0.17 0.7,0.56 0.8,2.89 2.3,4.25 3.7,4.25 0.6,0 0.9,-0.38 0.9,-1.22 0,-0.8 -0.3,-1.57 -0.5,-2.02 -1.7,-4.26 -2,-5.55 -2,-7.08 0,-0.59 0,-2.23 1.3,-3.35 1.1,-0.91 2.6,-1.08 3.5,-1.08 1.4,0 2.7,0.53 3.8,1.57 -0.4,-1.92 -0.8,-3.38 -2.3,-5.13 -0.9,-1.07 -2.3,-2.23 -4.1,-2.23 -0.3,0 -1.9,0 -2.7,1.16 1.9,0.2 1.9,1.88 1.9,1.91 0,1.12 -1,1.33 -1.3,1.33 -0.9,0 -2.1,-0.7 -2.1,-2.3 0,-1.78 1.7,-3.07 4.2,-3.07 3.5,0 7.8,2.71 8.9,7.07 z"
           inkscape:connector-curvature="0"
           style="fill:#000000;stroke-width:0" /><path
           id="path10796"
           d="m 1486.9,257.94 0,0.75 0,0.74 0,0.75 -0.1,0.74 0,0.75 -0.1,0.74 0,0.74 -0.1,0.73 -0.1,0.73 -0.2,0.73 -0.1,0.72 -0.2,0.72 -0.3,0.71 -0.2,0.71 -0.3,0.7 -0.1,0.35 -0.2,0.35 c -2.3,4.78 -6.3,5.58 -8.5,5.58 -2.9,0 -6.6,-1.3 -8.6,-5.93 -1.6,-3.44 -1.9,-7.32 -1.9,-11.31 0,-3.74 0.2,-8.22 2.3,-12.01 2.1,-4.03 5.8,-5.03 8.2,-5.03 l 0,1.1 c -1.9,0 -4.9,1.25 -5.8,6.03 -0.5,2.99 -0.5,7.57 -0.5,10.51 0,3.19 0,6.47 0.4,9.16 0.9,5.93 4.7,6.38 5.9,6.38 1.7,0 4.9,-0.9 5.9,-5.83 0.5,-2.79 0.5,-6.57 0.5,-9.71 0,-3.74 0,-7.13 -0.6,-10.31 -0.7,-4.73 -3.6,-6.23 -5.8,-6.23 l 0,0 0,-1.1 c 2.7,0 6.5,1.05 8.7,5.78 1.6,3.44 1.8,7.32 1.8,11.26 z"
           inkscape:connector-curvature="0"
           style="fill:#000000;stroke-width:0" /><path
           id="path10798"
           d="m 1245.9,197.94 0,0.75 0,0.74 0,0.75 -0.1,0.74 0,0.75 -0.1,0.74 0,0.74 -0.1,0.73 -0.1,0.73 -0.2,0.73 -0.1,0.72 -0.2,0.72 -0.3,0.71 -0.2,0.71 -0.3,0.7 -0.1,0.35 -0.2,0.35 c -2.3,4.78 -6.3,5.58 -8.5,5.58 -2.9,0 -6.6,-1.3 -8.6,-5.93 -1.6,-3.44 -1.9,-7.32 -1.9,-11.31 0,-3.74 0.2,-8.22 2.3,-12.01 2.1,-4.03 5.8,-5.03 8.2,-5.03 l 0,1.1 c -1.9,0 -4.9,1.25 -5.8,6.03 -0.5,2.99 -0.5,7.57 -0.5,10.51 0,3.19 0,6.47 0.4,9.16 0.9,5.93 4.7,6.38 5.9,6.38 1.7,0 4.9,-0.9 5.9,-5.83 0.5,-2.79 0.5,-6.57 0.5,-9.71 0,-3.74 0,-7.13 -0.6,-10.31 -0.7,-4.73 -3.6,-6.23 -5.8,-6.23 l 0,0 0,-1.1 c 2.7,0 6.5,1.05 8.7,5.78 1.6,3.44 1.8,7.32 1.8,11.26 z"
           inkscape:connector-curvature="0"
           style="fill:#000000;stroke-width:0" /><path
           id="path10800"
           d="m 1379.9,197.94 0,0.75 0,0.74 0,0.75 -0.1,0.74 0,0.75 -0.1,0.74 0,0.74 -0.1,0.73 -0.1,0.73 -0.2,0.73 -0.1,0.72 -0.2,0.72 -0.3,0.71 -0.2,0.71 -0.3,0.7 -0.1,0.35 -0.2,0.35 c -2.3,4.78 -6.3,5.58 -8.5,5.58 -2.9,0 -6.6,-1.3 -8.6,-5.93 -1.6,-3.44 -1.9,-7.32 -1.9,-11.31 0,-3.74 0.2,-8.22 2.3,-12.01 2.1,-4.03 5.8,-5.03 8.2,-5.03 l 0,1.1 c -1.9,0 -4.9,1.25 -5.8,6.03 -0.5,2.99 -0.5,7.57 -0.5,10.51 0,3.19 0,6.47 0.4,9.16 0.9,5.93 4.7,6.38 5.9,6.38 1.7,0 4.9,-0.9 5.9,-5.83 0.5,-2.79 0.5,-6.57 0.5,-9.71 0,-3.74 0,-7.13 -0.6,-10.31 -0.7,-4.73 -3.6,-6.23 -5.8,-6.23 l 0,0 0,-1.1 c 2.7,0 6.5,1.05 8.7,5.78 1.6,3.44 1.8,7.32 1.8,11.26 z"
           inkscape:connector-curvature="0"
           style="fill:#000000;stroke-width:0" /><path
           id="path10802"
           d="m 1477.9,212.39 0.1,0.15 0,0.14 0.1,0.14 0,0.13 0,0.12 0.1,0.12 0,0.11 0,0.11 0.1,0.1 0,0.09 0.1,0.09 0,0.08 0.1,0.08 0,0.07 0.1,0.07 0.1,0.06 0.1,0.06 0.1,0.05 0.1,0.05 0.1,0.04 0.1,0.04 0.1,0.03 0.1,0.03 0.1,0.02 0.1,0.01 0.1,0.01 0,0.02 0.1,0.01 0.1,0.01 0.1,0 0.1,0.01 0.1,0.01 0.1,0 0.1,0.01 0.1,0 0.1,0.01 0.1,0 0.1,0 0.1,0.01 0.2,0 0.1,0 c 0.8,0 1.3,0 1.3,0.95 0,0.44 -0.3,0.59 -0.7,0.59 l -12.8,0 c -0.5,0 -1.1,0 -1.1,-0.99 0,-0.55 0.4,-0.55 1.7,-0.55 1.2,0 1.7,0 2.9,-0.1 1.2,-0.15 1.6,-0.3 1.6,-1 0,-0.3 -0.1,-0.65 -0.2,-1.04 l -5.8,-22.87 c -1.2,-4.83 -4.5,-7.47 -7.1,-7.47 -1.3,0 -4,0.5 -4.8,3.09 0.2,-0.05 0.5,-0.05 0.6,-0.05 2,0 3.3,1.69 3.3,3.19 0,1.59 -1.4,2.09 -2.2,2.09 -0.9,0 -3.4,-0.6 -3.4,-3.99 0,-3.08 2.7,-5.43 6.6,-5.43 4.6,0 9.8,3.29 11,8.22 z"
           inkscape:connector-curvature="0"
           style="fill:#000000;stroke-width:0" /><path
           id="path10804"
           d="m 1484.9,177.07 0.1,0.17 0.2,0.16 0.2,0.17 0.1,0.16 0.2,0.18 0.1,0.09 0.1,0.09 0.1,0.09 0.1,0.1 0.1,0.1 0.1,0.11 0.2,0.11 0.1,0.11 0.1,0.12 0.2,0.13 0.1,0.13 0.2,0.14 0.2,0.14 0.1,0.15 0.2,0.16 0.2,0.16 0.2,0.17 0.3,0.19 0.2,0.18 0.2,0.2 0.3,0.21 0.3,0.22 c 0.7,0.59 3.3,2.69 4.3,3.66 2.1,2.09 3.5,3.87 3.5,4.29 0,0.42 -0.5,0.42 -0.6,0.42 -0.3,0 -0.4,-0.07 -0.6,-0.35 -1.1,-1.6 -1.8,-2.13 -2.7,-2.13 -0.4,0 -0.9,0.04 -2,1.05 -1.1,1.18 -1.9,1.43 -2.7,1.43 -2.8,0 -4.7,-3.04 -4.7,-4.08 0,-0.32 0.4,-0.42 0.6,-0.42 0.4,0 0.5,0.1 0.6,0.49 0.6,1.22 2.5,1.29 3.1,1.29 0.8,0 1.7,-0.21 2.2,-0.32 1.9,-0.41 2.1,-0.41 3,-0.41 -0.9,-0.95 -1.5,-1.58 -4.8,-4.22 -2.8,-2.17 -3.7,-3.04 -4.4,-3.73 -2.1,-2.06 -3.1,-3.6 -3.1,-3.91 0,-0.42 0.5,-0.42 0.6,-0.42 0.4,0 0.4,0.07 0.6,0.35 0.9,1.32 2,2.13 3.2,2.13 0.4,0 1,-0.04 1.9,-0.91 1.1,-1.04 1.8,-1.57 2.9,-1.57 3.7,0 6.1,4.22 6.1,5.4 0,0.42 -0.4,0.46 -0.6,0.46 -0.4,0 -0.5,-0.17 -0.7,-0.56 -0.6,-1.74 -2.7,-2.58 -4.4,-2.58 -0.8,0 -1.7,0.18 -2.5,0.38 -1.6,0.35 -1.9,0.35 -2.5,0.35 -0.1,0 -0.6,0 -0.8,-0.03 z"
           inkscape:connector-curvature="0"
           style="fill:#000000;stroke-width:0" /><path
           id="path10806"
           d="m 1531,255.32 0,2.82 0,2.74 -0.1,2.67 -0.1,2.59 -0.1,2.52 -0.2,2.45 -0.1,2.37 -0.2,2.3 -0.2,2.23 -0.3,2.15 -0.2,2.07 -0.3,2 -0.2,1.93 -0.3,1.85 -0.3,1.78 -0.3,1.71 -0.3,1.63 -0.3,1.55 -0.3,1.48 -0.2,1.41 -0.3,1.33 -0.3,1.26 -0.3,1.18 -0.3,1.11 -0.3,1.03 -0.2,0.96 -0.3,0.89 -0.2,0.8 -0.2,0.74 -0.2,0.66 -0.2,0.58 -0.1,0.51 c -3.4,11.06 -8.9,22.72 -17.3,32.98 -0.7,0.9 -0.9,1.14 -1.1,1.24 -0.1,0.05 -0.2,0.1 -1,0.1 -0.7,0 -1.1,0 -1.1,-0.49 0,-0.11 0,-0.2 0.6,-1.1 17.4,-24.21 21.3,-54.1 21.3,-87.82 0,-0.7 0.3,-0.7 1.4,-0.7 l 2.7,0 c 1.1,0 1.4,0 1.4,0.55 z"
           inkscape:connector-curvature="0"
           style="fill:#000000;stroke-width:0" /><path
           id="path10808"
           d="m 1531,253.94 0,0.05 0,0.05 0,0.04 0,0.04 0,0.04 0,0.04 0,0.03 -0.1,0.03 0,0.03 0,0.02 0,0.03 0,0.02 -0.1,0.02 0,0.01 0,0.02 -0.1,0.01 0,0.02 -0.1,0.01 0,0.01 -0.1,0 0,0.01 -0.1,0.01 0,0 -0.1,0 -0.1,0.01 0,0 -0.1,0 -0.1,0 -0.1,0 -0.1,0 -0.1,0 -0.1,0 -2.7,0 c -1.1,0 -1.4,0 -1.4,-0.7 0,-5.13 0,-16.98 -1.3,-29.39 -2.7,-25.75 -9.4,-43.58 -20.3,-58.88 -0.3,-0.44 -0.3,-0.54 -0.3,-0.64 0,-0.5 0.4,-0.5 1.1,-0.5 0.8,0 0.9,0 1,0.1 0.2,0.15 6.6,7.42 11.6,17.43 6.6,13.15 10.7,28.25 12.5,46.38 0.2,1.54 1.2,11.91 1.2,23.71 z"
           inkscape:connector-curvature="0"
           style="fill:#000000;stroke-width:0" /><path
           id="path10810"
           d="m 1572.6,252.83 0.1,0 0,0 0.1,0 0.1,0 0.1,0 0.1,0 0.1,0.01 0,0 0.1,0 0.1,0.01 0,0 0.1,0.01 0.1,0.01 0,0.01 0.1,0.01 0,0.01 0,0.02 0.1,0.02 0,0.02 0,0.02 0.1,0.02 0,0.03 0,0.03 0,0.03 0.1,0.04 0,0.03 0,0.04 0,0.05 0,0.05 0,0.05 0,0.05 0,0.06 0,0.07 c 0.1,34.92 4.2,63.91 21.6,88.27 0.3,0.45 0.3,0.54 0.3,0.65 0,0.49 -0.3,0.49 -1.1,0.49 -0.8,0 -0.9,0 -1,-0.1 -0.2,-0.14 -6.5,-7.42 -11.6,-17.43 -6.5,-13.15 -10.7,-28.25 -12.5,-46.38 -0.2,-1.54 -1.2,-11.9 -1.2,-23.71 l 0,-1.94 c 0.1,-0.55 0.3,-0.55 1.4,-0.55 z"
           inkscape:connector-curvature="0"
           style="fill:#000000;stroke-width:0" /><path
           id="path10812"
           d="m 1569.9,254.49 -0.1,0 -0.1,0 -0.1,0 -0.1,0 0,0 -0.1,0 -0.1,0 -0.1,-0.01 0,0 -0.1,0 0,-0.01 -0.1,-0.01 0,0 -0.1,-0.01 0,-0.01 -0.1,-0.02 0,-0.01 -0.1,-0.02 0,-0.01 0,-0.02 0,-0.02 -0.1,-0.03 0,-0.02 0,-0.03 0,-0.03 0,-0.03 -0.1,-0.04 0,-0.04 0,-0.04 0,-0.04 0,-0.05 0,-0.05 0,-1.94 c 0,-30.44 5.4,-48.27 7,-53.3 3.4,-11.06 8.9,-22.72 17.2,-32.98 0.7,-0.89 1,-1.14 1.1,-1.24 0.1,-0.05 0.2,-0.1 1,-0.1 0.8,0 1.1,0 1.1,0.5 0,0.1 0,0.2 -0.3,0.64 -16.5,23.02 -21.5,50.71 -21.6,88.27 0,0.7 -0.3,0.7 -1.4,0.7 z"
           inkscape:connector-curvature="0"
           style="fill:#000000;stroke-width:0" /><polygon
           id="polygon10814"
           points="1618.4,351.57 1611.8,344.8 1612.7,343.9 1618.4,348.98 1624.2,343.9 1625.1,344.8 "
           style="fill:#000000;stroke-width:0" /><path
           id="path10816"
           d="m 1629.1,338.62 0,0.02 0,0.01 0,0.02 0,0.02 0,0.01 0,0.02 0,0.02 0,0.02 0,0.02 0,0.02 0,0.02 0,0.02 0,0.02 0,0.02 -0.1,0.02 0,0.02 0,0.02 0,0.02 0,0.02 0,0.02 -0.1,0.02 0,0.01 0,0.02 0,0.01 -0.1,0.01 0,0.01 0,0 0,0.01 0,0 -0.1,0.01 0,0 0,0.01 0,0 0,0 0,0 -0.1,0 0,0.01 0,0 0,0 c -0.3,0 -0.3,-0.05 -0.9,-0.75 l -2.4,-2.84 c -1.3,2.34 -3.9,3.59 -7.1,3.59 -6.4,0 -12.3,-5.73 -12.3,-11.76 0,-4.03 2.6,-6.32 5.2,-7.07 l 5.3,-1.4 c 1.8,-0.44 4.6,-1.19 4.6,-5.28 0,-4.48 -4.1,-9.16 -9,-9.16 -3.2,0 -8.7,1.09 -8.7,7.27 0,1.2 0.2,2.39 0.3,2.69 0,0.2 0.1,0.25 0.1,0.35 0,0.5 -0.4,0.55 -0.6,0.55 -0.3,0 -0.4,-0.05 -0.5,-0.2 -0.2,-0.2 -3,-11.56 -3,-11.71 0,-0.3 0.2,-0.5 0.5,-0.5 0.3,0 0.3,0.05 0.9,0.75 l 2.5,2.84 c 2.1,-2.89 5.5,-3.59 8.4,-3.59 6.8,0 12.7,6.63 12.7,12.81 0,3.43 -1.8,5.13 -2.5,5.83 -1.1,1.14 -1.9,1.34 -6.3,2.48 -1.1,0.3 -2.9,0.8 -3.4,0.9 -1.3,0.45 -3,1.89 -3,4.53 0,4.04 4,8.27 8.7,8.27 4.1,0 7.2,-2.14 7.2,-7.72 0,-1.59 -0.2,-2.49 -0.2,-2.79 0,-0.05 0,-0.5 0.6,-0.5 0.5,0 0.5,0.15 0.7,1 z"
           inkscape:connector-curvature="0"
           style="fill:#000000;stroke-width:0" /><path
           id="path10818"
           d="m 1645.6,303.35 -1.2,0 c -0.1,-0.77 -0.4,-2.83 -0.9,-3.18 -0.3,-0.21 -2.9,-0.21 -3.4,-0.21 l -6.4,0 c 3.6,3.25 4.8,4.22 6.9,5.86 2.6,2.06 5,4.22 5,7.54 0,4.21 -3.7,6.79 -8.2,6.79 -4.3,0 -7.2,-3.03 -7.2,-6.24 0,-1.78 1.5,-1.95 1.8,-1.95 0.9,0 1.9,0.59 1.9,1.85 0,0.62 -0.2,1.85 -2.1,1.85 1.1,2.47 3.5,3.24 5.1,3.24 3.5,0 5.3,-2.72 5.3,-5.54 0,-3.04 -2.1,-5.45 -3.3,-6.7 l -8.3,-8.3 c -0.4,-0.31 -0.4,-0.38 -0.4,-1.36 l 14.4,0 z"
           inkscape:connector-curvature="0"
           style="fill:#000000;stroke-width:0" /><path
           id="path10820"
           d="m 1656.7,300.7 -0.1,-0.12 0,-0.11 0,-0.12 -0.1,-0.13 0,-0.12 -0.1,-0.13 -0.1,-0.12 0,-0.13 -0.1,-0.13 -0.1,-0.13 -0.1,-0.13 0,-0.12 -0.1,-0.13 -0.1,-0.12 -0.1,-0.12 -0.1,-0.12 -0.1,-0.12 -0.1,-0.11 -0.2,-0.1 -0.1,-0.1 -0.1,-0.1 -0.1,-0.09 -0.1,-0.08 -0.2,-0.08 -0.1,-0.07 -0.2,-0.06 -0.1,-0.05 -0.2,-0.05 -0.1,-0.03 -0.2,-0.03 -0.1,-0.02 -0.2,0 c -0.1,0 -1.2,0 -1.9,0.49 1.4,0.45 1.6,1.7 1.6,1.92 0,0.76 -0.6,1.28 -1.4,1.28 -1,0 -2,-0.83 -2,-2.12 0,-1.75 1.9,-2.55 3.6,-2.55 1.6,0 3.1,1.01 3.9,2.48 0.9,-1.85 2.8,-2.48 4.2,-2.48 4,0 6.1,4.36 6.1,5.33 0,0.46 -0.4,0.46 -0.5,0.46 -0.5,0 -0.6,-0.17 -0.7,-0.59 -0.7,-2.41 -2.8,-4.22 -4.8,-4.22 -1.4,0 -2.1,0.94 -2.1,2.26 0,0.91 0.8,4.08 1.8,7.95 0.7,2.69 2.3,3.56 3.4,3.56 0.1,0 1.2,0 1.9,-0.49 -1.1,-0.31 -1.5,-1.29 -1.5,-1.91 0,-0.77 0.6,-1.3 1.4,-1.3 0.8,0 1.9,0.67 1.9,2.13 0,1.96 -2.2,2.55 -3.6,2.55 -1.7,0 -3.1,-1.15 -3.9,-2.48 -0.6,1.43 -2.2,2.48 -4.2,2.48 -3.9,0 -6.1,-4.29 -6.1,-5.34 0,-0.45 0.5,-0.45 0.6,-0.45 0.4,0 0.5,0.14 0.6,0.59 0.9,2.72 3.1,4.22 4.8,4.22 1.2,0 2.1,-0.63 2.1,-2.3 0,-0.7 -0.4,-2.44 -0.7,-3.63 z"
           inkscape:connector-curvature="0"
           style="fill:#000000;stroke-width:0" /><polygon
           id="polygon10822"
           points="1618.4,286.57 1611.8,279.8 1612.7,278.9 1618.4,283.98 1624.2,278.9 1625.1,279.8 "
           style="fill:#000000;stroke-width:0" /><path
           id="path10824"
           d="m 1630.1,273.62 0,0.02 0,0.01 0,0.02 0,0.02 0,0.01 0,0.02 0,0.02 0,0.02 0,0.02 0,0.02 0,0.02 0,0.02 0,0.02 0,0.02 -0.1,0.02 0,0.02 0,0.02 0,0.02 0,0.02 0,0.02 -0.1,0.02 0,0.01 0,0.02 0,0.01 -0.1,0.01 0,0.01 0,0 0,0.01 0,0 -0.1,0.01 0,0 0,0.01 0,0 0,0 0,0 -0.1,0 0,0.01 0,0 0,0 c -0.3,0 -0.3,-0.05 -0.9,-0.75 l -2.4,-2.84 c -1.3,2.34 -3.9,3.59 -7.1,3.59 -6.4,0 -12.3,-5.73 -12.3,-11.76 0,-4.03 2.6,-6.32 5.2,-7.07 l 5.3,-1.39 c 1.8,-0.45 4.6,-1.2 4.6,-5.29 0,-4.48 -4.1,-9.16 -9,-9.16 -3.2,0 -8.7,1.09 -8.7,7.27 0,1.2 0.2,2.39 0.3,2.69 0,0.2 0.1,0.25 0.1,0.35 0,0.5 -0.4,0.55 -0.6,0.55 -0.3,0 -0.4,-0.05 -0.5,-0.2 -0.2,-0.2 -3,-11.56 -3,-11.71 0,-0.3 0.2,-0.5 0.5,-0.5 0.3,0 0.3,0.05 0.9,0.75 l 2.5,2.84 c 2.1,-2.89 5.5,-3.59 8.4,-3.59 6.8,0 12.7,6.63 12.7,12.81 0,3.44 -1.8,5.13 -2.5,5.83 -1.1,1.14 -1.9,1.34 -6.3,2.48 -1.1,0.3 -2.9,0.8 -3.4,0.9 -1.3,0.45 -3,1.89 -3,4.53 0,4.04 4,8.27 8.7,8.27 4.1,0 7.2,-2.14 7.2,-7.72 0,-1.59 -0.2,-2.49 -0.2,-2.79 0,-0.05 0,-0.5 0.6,-0.5 0.5,0 0.5,0.15 0.7,1 z"
           inkscape:connector-curvature="0"
           style="fill:#000000;stroke-width:0" /><path
           id="path10826"
           d="m 1645.6,238.35 -1.2,0 c -0.1,-0.77 -0.4,-2.83 -0.9,-3.18 -0.3,-0.21 -2.9,-0.21 -3.4,-0.21 l -6.4,0 c 3.6,3.25 4.8,4.22 6.9,5.86 2.6,2.06 5,4.22 5,7.53 0,4.22 -3.7,6.8 -8.2,6.8 -4.3,0 -7.2,-3.03 -7.2,-6.24 0,-1.78 1.5,-1.95 1.8,-1.95 0.9,0 1.9,0.59 1.9,1.85 0,0.62 -0.2,1.85 -2.1,1.85 1.1,2.47 3.5,3.24 5.1,3.24 3.5,0 5.3,-2.72 5.3,-5.55 0,-3.03 -2.1,-5.44 -3.3,-6.69 l -8.3,-8.3 c -0.4,-0.31 -0.4,-0.38 -0.4,-1.36 l 14.4,0 z"
           inkscape:connector-curvature="0"
           style="fill:#000000;stroke-width:0" /><path
           id="path10828"
           d="m 1667.4,245.15 0,0.02 0,0.02 0,0.02 0,0.02 0,0.02 0,0.02 0,0.04 0,0.04 0.1,0.03 0,0.03 0,0.03 0,0.03 0,0.03 0,0.02 0,0.03 0,0.02 0,0.02 0,0.02 0,0.02 0,0.02 0,0.02 0,0.02 0,0.02 0,0.03 0,0.03 0,0.04 0,0.03 0,0.02 0,0.02 0,0.01 0,0.02 c 0,0.7 -0.5,1.12 -1.1,1.12 -0.4,0 -1.1,-0.18 -1.5,-0.84 -0.1,-0.21 -0.3,-1.32 -0.5,-2.02 l -0.7,-2.9 c -0.3,-0.83 -1.3,-5.23 -1.4,-5.61 -0.1,0 -1.6,-3.03 -4.3,-3.03 -2.4,0 -2.4,2.27 -2.4,2.89 0,1.89 0.8,4.08 1.8,6.77 0.5,1.11 0.6,1.53 0.6,2.12 0,1.68 -1.4,2.97 -3.3,2.97 -3.5,0 -5.1,-4.74 -5.1,-5.34 0,-0.45 0.5,-0.45 0.6,-0.45 0.5,0 0.6,0.17 0.7,0.56 0.8,2.89 2.3,4.25 3.7,4.25 0.6,0 0.9,-0.38 0.9,-1.22 0,-0.8 -0.3,-1.57 -0.5,-2.02 -1.7,-4.26 -2,-5.55 -2,-7.08 0,-0.59 0,-2.23 1.3,-3.35 1.1,-0.91 2.6,-1.08 3.5,-1.08 1.4,0 2.7,0.53 3.8,1.57 -0.4,-1.92 -0.8,-3.38 -2.3,-5.13 -0.9,-1.07 -2.3,-2.23 -4.1,-2.23 -0.3,0 -1.9,0 -2.7,1.16 1.9,0.2 1.9,1.88 1.9,1.91 0,1.12 -1,1.33 -1.3,1.33 -0.9,0 -2.1,-0.7 -2.1,-2.3 0,-1.78 1.7,-3.07 4.2,-3.07 3.5,0 7.8,2.71 8.9,7.07 z"
           inkscape:connector-curvature="0"
           style="fill:#000000;stroke-width:0" /><polygon
           id="polygon10830"
           points="1619.4,221.57 1612.8,214.8 1613.7,213.9 1619.4,218.98 1625.2,213.9 1626.1,214.8 "
           style="fill:#000000;stroke-width:0" /><path
           id="path10832"
           d="m 1630.1,208.62 0,0.02 0,0.01 0,0.02 0,0.02 0,0.01 0,0.02 0,0.02 0,0.02 0,0.02 0,0.02 0,0.02 0,0.02 0,0.02 0,0.02 -0.1,0.02 0,0.02 0,0.02 0,0.02 0,0.02 0,0.02 -0.1,0.02 0,0.01 0,0.02 0,0.01 -0.1,0.01 0,0.01 0,0 0,0.01 0,0 -0.1,0.01 0,0 0,0.01 0,0 0,0 0,0 -0.1,0 0,0.01 0,0 0,0 c -0.3,0 -0.3,-0.05 -0.9,-0.75 l -2.4,-2.84 c -1.3,2.34 -3.9,3.59 -7.1,3.59 -6.4,0 -12.3,-5.73 -12.3,-11.76 0,-4.03 2.6,-6.32 5.2,-7.07 l 5.3,-1.39 c 1.8,-0.45 4.6,-1.2 4.6,-5.29 0,-4.48 -4.1,-9.16 -9,-9.16 -3.2,0 -8.7,1.09 -8.7,7.27 0,1.2 0.2,2.39 0.3,2.69 0,0.2 0.1,0.25 0.1,0.35 0,0.5 -0.4,0.55 -0.6,0.55 -0.3,0 -0.4,-0.05 -0.5,-0.2 -0.2,-0.2 -3,-11.56 -3,-11.71 0,-0.3 0.2,-0.5 0.5,-0.5 0.3,0 0.3,0.05 0.9,0.75 l 2.5,2.84 c 2.1,-2.89 5.5,-3.59 8.4,-3.59 6.8,0 12.7,6.63 12.7,12.81 0,3.44 -1.8,5.13 -2.5,5.83 -1.1,1.14 -1.9,1.34 -6.3,2.48 -1.1,0.3 -2.9,0.8 -3.4,0.9 -1.3,0.45 -3,1.89 -3,4.53 0,4.04 4,8.27 8.7,8.27 4.1,0 7.2,-2.14 7.2,-7.72 0,-1.59 -0.2,-2.49 -0.2,-2.79 0,-0.05 0,-0.5 0.6,-0.5 0.5,0 0.5,0.15 0.7,1 z"
           inkscape:connector-curvature="0"
           style="fill:#000000;stroke-width:0" /><path
           id="path10834"
           d="m 1646.6,172.35 -1.2,0 c -0.1,-0.77 -0.4,-2.83 -0.9,-3.18 -0.3,-0.21 -2.9,-0.21 -3.4,-0.21 l -6.4,0 c 3.6,3.25 4.8,4.22 6.9,5.86 2.6,2.06 5,4.22 5,7.53 0,4.22 -3.7,6.8 -8.2,6.8 -4.3,0 -7.2,-3.03 -7.2,-6.24 0,-1.78 1.5,-1.95 1.8,-1.95 0.9,0 1.9,0.59 1.9,1.85 0,0.62 -0.2,1.85 -2.1,1.85 1.1,2.47 3.5,3.24 5.1,3.24 3.5,0 5.3,-2.72 5.3,-5.55 0,-3.03 -2.1,-5.44 -3.3,-6.69 l -8.3,-8.3 c -0.4,-0.31 -0.4,-0.38 -0.4,-1.36 l 14.4,0 z"
           inkscape:connector-curvature="0"
           style="fill:#000000;stroke-width:0" /><path
           id="path10836"
           d="m 1654.9,169.07 0.1,0.17 0.2,0.16 0.2,0.17 0.1,0.16 0.2,0.18 0.1,0.09 0.1,0.09 0.1,0.09 0.1,0.1 0.1,0.1 0.1,0.11 0.2,0.11 0.1,0.11 0.1,0.12 0.2,0.13 0.1,0.13 0.2,0.14 0.2,0.14 0.1,0.15 0.2,0.16 0.2,0.16 0.2,0.17 0.3,0.19 0.2,0.18 0.2,0.2 0.3,0.21 0.3,0.22 c 0.7,0.59 3.3,2.69 4.3,3.66 2.1,2.09 3.5,3.87 3.5,4.29 0,0.42 -0.5,0.42 -0.6,0.42 -0.3,0 -0.4,-0.07 -0.6,-0.35 -1.1,-1.6 -1.8,-2.13 -2.7,-2.13 -0.4,0 -0.9,0.04 -2,1.05 -1.1,1.18 -1.9,1.43 -2.7,1.43 -2.8,0 -4.7,-3.04 -4.7,-4.08 0,-0.32 0.4,-0.42 0.6,-0.42 0.4,0 0.5,0.1 0.6,0.49 0.6,1.22 2.5,1.29 3.1,1.29 0.8,0 1.7,-0.21 2.2,-0.32 1.9,-0.41 2.1,-0.41 3,-0.41 -0.9,-0.95 -1.5,-1.58 -4.8,-4.22 -2.8,-2.17 -3.7,-3.04 -4.4,-3.73 -2.1,-2.06 -3.1,-3.6 -3.1,-3.91 0,-0.42 0.5,-0.42 0.6,-0.42 0.4,0 0.4,0.07 0.6,0.35 0.9,1.32 2,2.13 3.2,2.13 0.4,0 1,-0.04 1.9,-0.91 1.1,-1.04 1.8,-1.57 2.9,-1.57 3.7,0 6.1,4.22 6.1,5.4 0,0.42 -0.4,0.46 -0.6,0.46 -0.4,0 -0.5,-0.17 -0.7,-0.56 -0.6,-1.74 -2.7,-2.58 -4.4,-2.58 -0.8,0 -1.7,0.18 -2.5,0.38 -1.6,0.35 -1.9,0.35 -2.5,0.35 -0.1,0 -0.6,0 -0.8,-0.03 z"
           inkscape:connector-curvature="0"
           style="fill:#000000;stroke-width:0" /><path
           id="path10838"
           d="m 1702,255.32 0,2.82 0,2.74 -0.1,2.67 -0.1,2.59 -0.1,2.52 -0.2,2.45 -0.1,2.37 -0.2,2.3 -0.2,2.23 -0.3,2.15 -0.2,2.07 -0.3,2 -0.2,1.93 -0.3,1.85 -0.3,1.78 -0.3,1.71 -0.3,1.63 -0.3,1.55 -0.3,1.48 -0.2,1.41 -0.3,1.33 -0.3,1.26 -0.3,1.18 -0.3,1.11 -0.3,1.03 -0.2,0.96 -0.3,0.89 -0.2,0.8 -0.2,0.74 -0.2,0.66 -0.2,0.58 -0.1,0.51 c -3.4,11.06 -8.9,22.72 -17.3,32.98 -0.7,0.9 -0.9,1.14 -1.1,1.24 -0.1,0.05 -0.2,0.1 -1,0.1 -0.7,0 -1.1,0 -1.1,-0.49 0,-0.11 0,-0.2 0.6,-1.1 17.4,-24.21 21.3,-54.1 21.3,-87.82 0,-0.7 0.3,-0.7 1.4,-0.7 l 2.7,0 c 1.1,0 1.4,0 1.4,0.55 z"
           inkscape:connector-curvature="0"
           style="fill:#000000;stroke-width:0" /><path
           id="path10840"
           d="m 1702,253.94 0,0.05 0,0.05 0,0.04 0,0.04 0,0.04 0,0.04 0,0.03 -0.1,0.03 0,0.03 0,0.02 0,0.03 0,0.02 -0.1,0.02 0,0.01 0,0.02 -0.1,0.01 0,0.02 -0.1,0.01 0,0.01 -0.1,0 0,0.01 -0.1,0.01 0,0 -0.1,0 -0.1,0.01 0,0 -0.1,0 -0.1,0 -0.1,0 -0.1,0 -0.1,0 -0.1,0 -2.7,0 c -1.1,0 -1.4,0 -1.4,-0.7 0,-5.13 0,-16.98 -1.3,-29.39 -2.7,-25.75 -9.4,-43.58 -20.3,-58.88 -0.3,-0.44 -0.3,-0.54 -0.3,-0.64 0,-0.5 0.4,-0.5 1.1,-0.5 0.8,0 0.9,0 1,0.1 0.2,0.15 6.6,7.42 11.6,17.43 6.6,13.15 10.7,28.25 12.5,46.38 0.2,1.54 1.2,11.91 1.2,23.71 z"
           inkscape:connector-curvature="0"
           style="fill:#000000;stroke-width:0" /></g>    </g>
    <text
       xml:space="preserve"
       style="font-style:normal;font-variant:normal;font-weight:normal;font-stretch:normal;font-size:12px;line-height:125%;font-family:cmmi10;-inkscape-font-specification:cmmi10;letter-spacing:0px;word-spacing:0px;fill:#000000;fill-opacity:1;stroke:none;stroke-width:1px;stroke-linecap:butt;stroke-linejoin:miter;stroke-opacity:1"
       x="181.5"
       y="926.86224"
       id="text5315"
       sodipodi:linespacing="125%"><tspan
         sodipodi:role="line"
         id="tspan5317"
         x="181.5"
         y="926.86224"
         style="font-style:normal;font-variant:normal;font-weight:normal;font-stretch:normal;font-size:25px;font-family:cmr10;-inkscape-font-specification:cmr10">1</tspan></text>
    <text
       xml:space="preserve"
       style="font-style:normal;font-variant:normal;font-weight:normal;font-stretch:normal;font-size:12px;line-height:125%;font-family:cmmi10;-inkscape-font-specification:cmmi10;letter-spacing:0px;word-spacing:0px;fill:#000000;fill-opacity:1;stroke:none;stroke-width:1px;stroke-linecap:butt;stroke-linejoin:miter;stroke-opacity:1"
       x="273.65234"
       y="923.18744"
       id="text5315-6"
       sodipodi:linespacing="125%"><tspan
         sodipodi:role="line"
         id="tspan5317-7"
         x="273.65234"
         y="923.18744"
         style="font-style:normal;font-variant:normal;font-weight:normal;font-stretch:normal;font-size:25px;font-family:cmr10;-inkscape-font-specification:cmr10">2</tspan></text>
    <text
       xml:space="preserve"
       style="font-style:normal;font-variant:normal;font-weight:normal;font-stretch:normal;font-size:12px;line-height:125%;font-family:cmmi10;-inkscape-font-specification:cmmi10;letter-spacing:0px;word-spacing:0px;fill:#000000;fill-opacity:1;stroke:none;stroke-width:1px;stroke-linecap:butt;stroke-linejoin:miter;stroke-opacity:1"
       x="362.65234"
       y="924.18744"
       id="text5315-5"
       sodipodi:linespacing="125%"><tspan
         sodipodi:role="line"
         id="tspan5317-3"
         x="362.65234"
         y="924.18744"
         style="font-style:normal;font-variant:normal;font-weight:normal;font-stretch:normal;font-size:25px;font-family:cmr10;-inkscape-font-specification:cmr10">3</tspan></text>
    <text
       xml:space="preserve"
       style="font-style:normal;font-variant:normal;font-weight:normal;font-stretch:normal;font-size:12px;line-height:125%;font-family:cmmi10;-inkscape-font-specification:cmmi10;letter-spacing:0px;word-spacing:0px;fill:#000000;fill-opacity:1;stroke:none;stroke-width:1px;stroke-linecap:butt;stroke-linejoin:miter;stroke-opacity:1"
       x="437.15234"
       y="882.68744"
       id="text5315-56"
       sodipodi:linespacing="125%"><tspan
         sodipodi:role="line"
         id="tspan5317-2"
         x="437.15234"
         y="882.68744"
         style="font-style:normal;font-variant:normal;font-weight:normal;font-stretch:normal;font-size:25px;font-family:cmr10;-inkscape-font-specification:cmr10">4</tspan></text>
    <text
       xml:space="preserve"
       style="font-style:normal;font-variant:normal;font-weight:normal;font-stretch:normal;font-size:12px;line-height:125%;font-family:cmmi10;-inkscape-font-specification:cmmi10;letter-spacing:0px;word-spacing:0px;fill:#000000;fill-opacity:1;stroke:none;stroke-width:1px;stroke-linecap:butt;stroke-linejoin:miter;stroke-opacity:1"
       x="510.65234"
       y="987.68744"
       id="text5315-9"
       sodipodi:linespacing="125%"><tspan
         sodipodi:role="line"
         id="tspan5317-1"
         x="510.65234"
         y="987.68744"
         style="font-style:normal;font-variant:normal;font-weight:normal;font-stretch:normal;font-size:25px;font-family:cmr10;-inkscape-font-specification:cmr10">5</tspan></text>
    <text
       xml:space="preserve"
       style="font-style:normal;font-variant:normal;font-weight:normal;font-stretch:normal;font-size:12px;line-height:125%;font-family:cmmi10;-inkscape-font-specification:cmmi10;letter-spacing:0px;word-spacing:0px;fill:#000000;fill-opacity:1;stroke:none;stroke-width:1px;stroke-linecap:butt;stroke-linejoin:miter;stroke-opacity:1"
       x="460.15234"
       y="1044.6874"
       id="text5315-2"
       sodipodi:linespacing="125%"><tspan
         sodipodi:role="line"
         id="tspan5317-70"
         x="460.15234"
         y="1044.6874"
         style="font-style:normal;font-variant:normal;font-weight:normal;font-stretch:normal;font-size:25px;font-family:cmr10;-inkscape-font-specification:cmr10">6</tspan></text>
    <text
       xml:space="preserve"
       style="font-style:normal;font-variant:normal;font-weight:normal;font-stretch:normal;font-size:12px;line-height:125%;font-family:cmmi10;-inkscape-font-specification:cmmi10;letter-spacing:0px;word-spacing:0px;fill:#000000;fill-opacity:1;stroke:none;stroke-width:1px;stroke-linecap:butt;stroke-linejoin:miter;stroke-opacity:1"
       x="12.652344"
       y="912.68744"
       id="text5315-93"
       sodipodi:linespacing="125%"><tspan
         sodipodi:role="line"
         id="tspan5317-6"
         x="12.652344"
         y="912.68744"
         style="font-style:normal;font-variant:normal;font-weight:normal;font-stretch:normal;font-size:25px;font-family:cmr10;-inkscape-font-specification:cmr10">N<tspan
   style="font-style:normal;font-variant:normal;font-weight:normal;font-stretch:normal;font-family:cmsy10;-inkscape-font-specification:cmsy10"
   id="tspan5385">¡</tspan>1</tspan></text>
    <text
       xml:space="preserve"
       style="font-style:normal;font-variant:normal;font-weight:normal;font-stretch:normal;font-size:12px;line-height:125%;font-family:cmmi10;-inkscape-font-specification:cmmi10;letter-spacing:0px;word-spacing:0px;fill:#000000;fill-opacity:1;stroke:none;stroke-width:1px;stroke-linecap:butt;stroke-linejoin:miter;stroke-opacity:1"
       x="94.652344"
       y="860.68744"
       id="text5315-0"
       sodipodi:linespacing="125%"><tspan
         sodipodi:role="line"
         id="tspan5317-62"
         x="94.652344"
         y="860.68744"
         style="font-style:normal;font-variant:normal;font-weight:normal;font-stretch:normal;font-size:25px;font-family:cmr10;-inkscape-font-specification:cmr10">N</tspan></text>
    <path
       style="fill:none;fill-rule:evenodd;stroke:#000000;stroke-width:2;stroke-linecap:butt;stroke-linejoin:miter;stroke-miterlimit:4;stroke-dasharray:none;stroke-opacity:1;marker-end:url(#marker4736)"
       d="m 264.5,816.36224 c 2,17.66667 -38.5,18.33333 -35.5,58.5"
       id="path5389"
       inkscape:connector-curvature="0"
       sodipodi:nodetypes="cc" />
  </g>
</svg>
